<?xml version="1.0" encoding="UTF-8" standalone="no"?>
<svg
   version="1.0"
   width="1024px"
   height="1024px"
   viewBox="0 0 1024 1024"
   preserveAspectRatio="xMidYMid meet"
   id="svg125"
   sodipodi:docname="zetis-light-logo-v2.svg"
   inkscape:version="1.3.2 (091e20e, 2023-11-25)"
   xmlns:inkscape="http://www.inkscape.org/namespaces/inkscape"
   xmlns:sodipodi="http://sodipodi.sourceforge.net/DTD/sodipodi-0.dtd"
   xmlns="http://www.w3.org/2000/svg"
   xmlns:svg="http://www.w3.org/2000/svg">
  <defs
     id="defs125" />
  <sodipodi:namedview
     id="namedview125"
     pagecolor="#ffffff"
     bordercolor="#000000"
     borderopacity="0.25"
     inkscape:showpageshadow="2"
     inkscape:pageopacity="0.0"
     inkscape:pagecheckerboard="0"
     inkscape:deskcolor="#d1d1d1"
     inkscape:zoom="0.67371198"
     inkscape:cx="431.93532"
     inkscape:cy="486.11278"
     inkscape:window-width="1496"
     inkscape:window-height="870"
     inkscape:window-x="10"
     inkscape:window-y="46"
     inkscape:window-maximized="0"
     inkscape:current-layer="svg125" />
  <g
     fill="#000000"
     id="g1"
     style="fill:#f8f8f8;fill-opacity:1">
    <path
       d="M0 512 l0 -512 512 0 512 0 0 512 0 512 -512 0 -512 0 0 -512z"
       id="path1"
       style="fill:#f8f8f8;fill-opacity:1" />
  </g>
  <g
     fill="#080808"
     id="g2"
     style="fill:#f8f8f8;fill-opacity:1">
    <path
       d="M0 512 l0 -512 512 0 512 0 0 512 0 512 -512 0 -512 0 0 -512z m303.50 192.40 c1.50 -2 2.90 -3.95 3.15 -4.25 0.25 -0.35 0.35 -0.65 0.20 -0.65 -0.10 0 -1.45 1.65 -2.95 3.65 -2.95 3.90 -3.55 4.85 -3.25 4.85 0.10 0 1.40 -1.65 2.85 -3.60z m-2.90 -314.40 c0.45 -1.80 1.05 -3.90 1.35 -4.65 0.30 -0.80 0.55 -1.70 0.55 -2 -0.05 -1.15 -0.90 0.95 -2.05 4.90 l-1.20 4 0 157.50 0 157.50 0.25 -157 c0.25 -143.30 0.35 -157.30 1.10 -160.25z m11.90 302.45 c2.95 -4.25 2.15 -3.65 -1.25 0.95 -1.60 2.10 -2.45 3.45 -1.90 2.95 0.60 -0.50 2 -2.25 3.15 -3.90z m11 -14.75 c6.05 -8.25 28.15 -37.95 34.10 -45.95 6.70 -8.90 26.75 -35.90 30.80 -41.40 7.95 -10.80 10.50 -14.20 16.95 -22.75 2.15 -2.85 4.25 -5.65 4.65 -6.25 0.40 -0.60 8.50 -11.40 18 -24.05 9.50 -12.60 17.60 -23.40 18 -24 0.80 -1.10 6.25 -8.35 8.50 -11.30 0.75 -0.95 3 -4 5.05 -6.75 2 -2.75 3.95 -5.35 4.30 -5.75 0.35 -0.40 2.30 -3 4.35 -5.75 6.85 -9.20 14.20 -18.95 16.90 -22.40 1.45 -1.90 2.85 -3.80 3.10 -4.25 0.25 -0.50 1.65 -2.30 3.05 -4.10 1.40 -1.80 2.75 -3.60 3 -4 1.30 -2.40 -3.50 3.80 -19.10 24.50 -25.95 34.50 -66.05 88.05 -73.15 97.65 -3.45 4.65 -10.95 14.80 -16.75 22.55 -5.75 7.75 -14.10 18.90 -18.50 24.80 -4.35 5.90 -12.80 17.30 -18.75 25.25 -11.15 14.95 -14.15 19.05 -23 31 -2.85 3.85 -6.15 8.35 -7.40 10 -3.10 4.15 -3.45 4.75 -1.80 2.95 0.80 -0.85 4.25 -5.35 7.70 -10z m367.95 -37.95 c21.95 -3.20 38.25 -13.90 48.70 -32 2.75 -4.80 6.20 -13.30 6.60 -16.35 0.20 -1.50 -0.10 -0.85 -1 2.10 -6.35 20.70 -21.25 36.30 -40.95 42.70 -9.95 3.25 0.15 3 -119.90 3.15 -70.85 0.10 -108.90 0.35 -108.90 0.65 0 0.35 36.60 0.50 105.05 0.50 91.85 0 105.75 -0.10 110.40 -0.75z m-206.50 -13 c21.05 -28.20 158.55 -211.30 170.25 -226.75 9.80 -12.95 17.10 -22.55 22.80 -30 2.25 -2.90 7.65 -9.95 12 -15.75 4.40 -5.75 14.20 -18.60 21.80 -28.50 11.05 -14.45 32.30 -42.20 34.90 -45.70 0.40 -0.55 0.40 -0.65 -0.05 -0.40 -0.30 0.20 -1.90 2.10 -3.50 4.20 -1.60 2.10 -4.65 6.10 -6.75 8.85 -2.15 2.80 -5.15 6.75 -6.65 8.80 -1.55 2.05 -4.45 5.90 -6.55 8.50 -2.05 2.60 -5.70 7.35 -8.05 10.50 -2.40 3.15 -6 7.90 -8.10 10.50 -2.10 2.60 -4.45 5.70 -5.30 6.85 -1.55 2.20 -9.50 12.60 -26.75 35.15 -10.10 13.15 -12.45 16.25 -20 26.25 -5.90 7.75 -18.40 24.40 -22.75 30.30 -3.35 4.50 -24.15 32.15 -27.70 36.85 -2.35 3.15 -4.65 6.15 -5.05 6.75 -0.40 0.65 -1.75 2.45 -3 4.05 -1.25 1.65 -3.35 4.45 -4.75 6.30 -1.35 1.90 -3.50 4.70 -4.75 6.30 -4.45 5.90 -10.80 14.35 -13.25 17.65 -1.35 1.85 -9.90 13.25 -19 25.25 -9.05 12.05 -17.15 22.85 -18 24.05 -0.80 1.15 -4.55 6.15 -8.25 11.05 -10.10 13.30 -27.20 36.10 -46.30 61.75 -0.50 0.70 -2.25 3 -3.80 5.10 -1.60 2.10 -2.90 4 -2.90 4.20 0.05 0.50 -0.15 0.75 9.45 -12.10z m263.55 -194.95 c0.05 -83.55 -0.05 -152.05 -0.25 -152.20 -0.15 -0.15 -0.25 67.80 -0.25 151 0 83.20 -0.10 152.35 -0.25 153.70 -0.20 2.10 -0.20 2.25 0.25 0.95 0.30 -0.95 0.50 -54.75 0.50 -153.45z m-241.70 0.45 c11.95 -15.95 10.90 -14.55 13.35 -17.75 1.20 -1.50 5.65 -7.35 9.90 -13 4.25 -5.65 10.65 -14.05 14.20 -18.75 3.55 -4.65 9.45 -12.45 13.05 -17.25 3.65 -4.80 7.50 -9.85 8.55 -11.25 1.05 -1.35 2.25 -3 2.65 -3.60 0.40 -0.55 1.85 -2.50 3.20 -4.25 3.30 -4.30 3.75 -4.95 1.80 -2.90 -0.90 0.95 -7.50 9.50 -14.65 19 -7.15 9.50 -15.80 20.95 -19.25 25.50 -18 23.60 -40.50 53.50 -43.25 57.50 -3.90 5.60 1.05 -0.65 10.45 -13.25z m-196 -64.65 c2.75 -3.95 9.30 -10.80 13.20 -13.80 6.15 -4.80 14.05 -8.55 23 -10.90 l4.25 -1.15 111.50 -0.25 111.50 -0.25 -106 -0.20 c-58.30 -0.15 -106.90 -0.25 -108 -0.30 -2.80 -0.05 -11.15 1.05 -14.60 1.95 -7.75 2.05 -17 6.65 -22.90 11.35 -6.80 5.40 -13.15 13.35 -17.25 21.50 -2.85 5.55 -2.45 5.60 0.50 0.05 1.35 -2.60 3.55 -6.20 4.80 -8z"
       id="path2"
       style="fill:#f8f8f8;fill-opacity:1" />
  </g>
  <g
     fill="#101010"
     id="g5"
     style="fill:#f8f8f8;fill-opacity:1">
    <path
       d="M0 512 l0 -512 512 0 512 0 0 512 0 512 -512 0 -512 0 0 -512z m303.80 192.40 c1.85 -2.55 4.35 -5.90 5.50 -7.40 1.20 -1.50 5.95 -7.85 10.55 -14.05 14.95 -20.15 16.40 -22.05 17.65 -23.75 0.70 -0.90 3.40 -4.55 6 -8.10 2.60 -3.55 6.35 -8.60 8.30 -11.15 1.95 -2.60 5.95 -7.95 8.90 -11.95 2.95 -4 5.80 -7.80 6.30 -8.50 1.35 -1.75 8.60 -11.45 9.50 -12.70 0.80 -1.15 17.55 -23.70 19.35 -26.10 0.65 -0.80 2.20 -2.90 3.50 -4.70 2.70 -3.75 32.20 -43.15 56.35 -75.25 9.10 -12.10 18.75 -24.90 21.45 -28.50 2.65 -3.55 5.30 -7.05 5.85 -7.75 0.55 -0.70 2.25 -2.95 3.75 -5 1.50 -2.05 3.75 -5.10 5 -6.75 1.25 -1.65 7.20 -9.55 13.20 -17.60 11.35 -15.20 11.70 -15.65 15.25 -20.15 1.15 -1.50 8.30 -10.95 15.85 -20.95 7.55 -10 15.35 -20.35 17.35 -23 2 -2.65 5.05 -6.70 6.75 -9 1.70 -2.30 3.80 -5 4.65 -6 0.85 -1 2.05 -2.60 2.70 -3.55 1 -1.45 3.60 -4.90 5.90 -7.75 0.25 -0.30 0.85 -1.15 1.35 -1.95 0.80 -1.15 0.80 -1.45 0.20 -1.85 -0.40 -0.25 -45.80 -0.40 -110.95 -0.30 -87.05 0.10 -111 0.25 -113.90 0.75 -4.05 0.75 -11.85 3.30 -16.10 5.35 -9.75 4.70 -17.65 11.55 -24.25 21 -2.85 4.10 -7.75 14.20 -9 18.50 -2.20 7.75 -2.15 4.25 -2.15 166.95 0 84.95 0.10 154.75 0.25 155.15 0.55 1.40 1.70 0.50 4.95 -3.95z m387.70 -64.40 c15.20 -1.85 28.50 -8.30 38.65 -18.70 8.20 -8.45 14 -18.85 17.20 -30.85 l1.40 -5.20 0.10 -152.35 c0.10 -83.80 0 -152.70 -0.15 -153.15 -0.70 -1.80 -2.20 -0.60 -6.75 5.40 -2.55 3.35 -5.65 7.45 -6.95 9.10 -1.25 1.65 -2.35 3.10 -2.50 3.25 -0.15 0.15 -1.75 2.15 -3.50 4.50 -1.75 2.35 -4.55 6 -6.25 8.15 -8.35 10.85 -17.15 22.35 -26.05 34.10 -5.45 7.15 -10 13.10 -10.15 13.25 -0.30 0.25 -0.60 0.65 -11.85 15.50 -3.85 5.10 -9.10 11.95 -11.65 15.25 -2.50 3.30 -6.20 8.15 -8.15 10.75 -1.95 2.60 -4.15 5.50 -4.85 6.45 -0.70 0.90 -1.75 2.30 -2.30 3.05 -0.55 0.75 -2.60 3.50 -4.55 6.05 -1.95 2.60 -3.95 5.30 -4.50 6 -0.95 1.30 -7.75 10.25 -10.20 13.45 -3.15 4.10 -10.40 13.80 -16.45 22 -7.50 10.20 -9.75 13.20 -11.60 15.50 -1 1.25 -2.50 3.15 -3.25 4.30 -2 2.80 -5.70 7.75 -8.95 11.95 -2.40 3.10 -7.65 10.10 -9.75 13.05 -0.40 0.60 -2.35 3.15 -4.35 5.75 -2 2.60 -7.45 9.90 -12.15 16.20 -4.75 6.35 -9.40 12.50 -10.45 13.75 -1 1.25 -2.40 3.05 -3.05 4 -0.70 0.95 -2.15 2.90 -3.25 4.30 -1.10 1.45 -2.90 3.85 -3.95 5.40 -1.10 1.55 -2.35 3.20 -2.75 3.65 -0.45 0.50 -1.25 1.60 -1.75 2.40 -0.55 0.85 -1.95 2.75 -3.10 4.25 -1.20 1.50 -3.35 4.35 -4.80 6.25 -1.45 1.95 -2.80 3.75 -3 4 -0.70 0.80 -11.55 15.25 -12.40 16.45 -0.40 0.55 -3.75 5.10 -7.45 10.05 -3.75 4.95 -8.80 11.70 -11.25 15 -2.50 3.30 -4.70 6.25 -4.90 6.50 -0.25 0.30 -2.50 3.30 -5.05 6.75 -2.55 3.45 -5.85 7.80 -7.25 9.70 -3.45 4.60 -3.40 5.20 0.30 5.40 8.30 0.45 209.80 -0.10 213.60 -0.60z"
       id="path3"
       style="fill:#f8f8f8;fill-opacity:1" />
    <path
       d="M299.50 553.30 c0 -107.75 0.15 -156.40 0.55 -159.10 1.70 -12.35 7.75 -24.35 17.20 -34.15 7.10 -7.35 14.95 -12.30 24.75 -15.60 9.25 -3.10 3.75 -2.95 123.40 -2.95 67.85 0 109.10 0.20 109.10 0.45 0 0.30 -0.25 0.65 -0.50 0.80 -0.30 0.20 -3.40 4.20 -6.95 8.90 -3.55 4.75 -8.65 11.55 -11.40 15.10 -2.70 3.60 -8.15 10.80 -12.15 16 -3.95 5.25 -11.40 15 -16.50 21.75 -5.15 6.75 -14.45 19.10 -20.75 27.50 -6.30 8.40 -16.80 22.45 -23.45 31.25 -40.90 54.50 -83.50 111.40 -89.35 119.30 -9.05 12.20 -24.45 32.95 -33.20 44.70 -11.45 15.35 -25.80 34.65 -29.55 39.75 -1.95 2.60 -7.45 10.05 -12.25 16.50 -4.80 6.45 -10.95 14.75 -13.65 18.40 -2.70 3.60 -5 6.60 -5.10 6.60 -0.10 0 -0.20 -69.85 -0.20 -155.20z"
       id="path4"
       style="fill:#f8f8f8;fill-opacity:1" />
    <path
       d="M475.90 638.90 c0.25 -0.35 25.55 -34.05 56.20 -74.90 30.60 -40.85 61.20 -81.55 67.90 -90.50 6.70 -8.95 17.60 -23.45 24.20 -32.25 15.75 -21 35.70 -47.45 39.55 -52.50 1.70 -2.20 11.75 -15.35 22.35 -29.25 16.45 -21.60 28.75 -37.65 38.40 -50.25 2.95 -3.90 8.80 -11.50 16.45 -21.50 3.40 -4.40 6.35 -8.05 6.60 -8.15 0.25 -0.10 0.45 59.95 0.45 151 0 167 0.20 155.15 -3.10 165.15 -2.75 8.20 -6.80 15.25 -12.70 22.25 -9.30 11 -23.10 18.40 -38.70 20.75 -6.60 1 -218.40 1.10 -217.60 0.15z"
       id="path5"
       style="fill:#f8f8f8;fill-opacity:1" />
  </g>
  <g
     fill="#191919"
     id="g9"
     style="fill:#f8f8f8;fill-opacity:1">
    <path
       d="M299.50 553.50 c0 -169.95 -0.15 -159.80 2.95 -169.35 5.15 -15.70 17.05 -29.35 31.80 -36.45 6.30 -3 12.60 -4.95 18.75 -5.70 5.55 -0.65 221.50 -0.70 221.50 -0.05 0 0.30 -0.20 0.65 -0.50 0.80 -0.25 0.15 -3.85 4.75 -7.90 10.15 -7.55 10 -16.65 22 -25.65 33.85 -17.55 23.10 -31.55 41.65 -52.05 69 -7.85 10.45 -28.85 38.45 -46.70 62.25 -17.85 23.80 -37.95 50.65 -44.70 59.75 -6.75 9.05 -15.60 21.05 -19.75 26.55 -30.55 41.10 -43.70 58.75 -53.45 71.95 -13 17.55 -23.45 31.55 -23.85 32 -0.25 0.25 -0.45 -63.10 -0.45 -154.75z"
       id="path6"
       style="fill:#f8f8f8;fill-opacity:1" />
    <path
       d="M484.35 627.65 c12.45 -16.60 80.85 -107.80 130.90 -174.40 40.20 -53.50 47.25 -62.85 61.10 -81 3.40 -4.40 12.15 -15.85 19.50 -25.50 19.95 -26.15 22.55 -29.55 33.15 -43.35 5.35 -6.95 11.65 -15.15 14 -18.25 2.30 -3.10 4.40 -5.45 4.60 -5.25 0.25 0.25 0.35 69 0.25 152.90 -0.10 144.80 -0.15 152.65 -1.05 156.20 -3.30 13.75 -9.70 24.90 -19.75 34.20 -7.55 7.05 -17.80 12.20 -30.05 15.10 -3.55 0.85 -10.10 0.90 -112.65 1.05 l-108.85 0.15 8.85 -11.85z"
       id="path7"
       style="fill:#f8f8f8;fill-opacity:1" />
    <path
       d="M297.65 410.75 c0 -1.10 0.10 -1.50 0.20 -0.85 0.10 0.60 0.10 1.50 0 2 -0.15 0.45 -0.25 -0.05 -0.20 -1.15z"
       id="path8"
       style="fill:#f8f8f8;fill-opacity:1" />
    <path
       d="M298.05 395.15 c0 -0.25 0.20 -0.85 0.45 -1.40 0.40 -0.90 0.45 -0.85 0.45 0.40 0.05 0.75 -0.15 1.35 -0.45 1.35 -0.25 0 -0.50 -0.15 -0.45 -0.35z"
       id="path9"
       style="fill:#f8f8f8;fill-opacity:1" />
  </g>
  <g
     fill="#212121"
     id="g11"
     style="fill:#1a1a1a;fill-opacity:1">
    <path
       d="M299.65 551.25 c0.10 -143.45 0.20 -157.80 0.95 -160.75 3.25 -13.10 9.15 -23.35 18.45 -32.25 7.50 -7.15 16.30 -12.05 26.85 -14.90 l5.85 -1.60 111.45 -0.15 c110.70 -0.10 111.45 -0.10 110.75 0.85 -0.95 1.35 -17.70 23.50 -29.75 39.30 -5.40 7.15 -12.35 16.25 -15.40 20.25 -4.60 6.05 -78.55 104.50 -103.30 137.50 -7.85 10.50 -21.75 29.10 -29.80 40 -9 12.10 -22.65 30.45 -34.25 46 -12.25 16.45 -19.75 26.50 -34.95 47.05 -14.10 19 -24.90 33.50 -26 34.95 -0.95 1.25 -0.95 -0.55 -0.85 -156.25z"
       id="path10"
       style="fill:#1a1a1a;fill-opacity:1" />
    <path
       d="M476 639.20 c0 -0.15 2.95 -4.25 6.60 -9.10 21.50 -28.80 169.20 -225.55 175.80 -234.25 5.65 -7.40 13.25 -17.40 27.55 -36.10 6.90 -9.05 15.30 -20.10 18.70 -24.50 3.35 -4.35 8 -10.45 10.35 -13.55 2.35 -3.05 5.60 -7.35 7.30 -9.50 11.25 -14.60 23.40 -30.55 24.05 -31.55 0.40 -0.60 0.95 -1 1.20 -0.85 0.25 0.15 0.45 63.20 0.45 150.60 0 166.15 0.20 155.10 -3.20 165.35 -3.25 9.60 -7.70 17.05 -14.50 24.15 -8.75 9.15 -18.50 14.70 -31.80 18 l-5.25 1.30 -108.60 0.15 c-59.75 0.10 -108.65 0.05 -108.65 -0.15z"
       id="path11"
       style="fill:#1a1a1a;fill-opacity:1" />
  </g>
  <g
     fill="#292929"
     id="g13"
     style="fill:#1a1a1a;fill-opacity:1">
    <path
       d="M299.50 553.40 c0 -169.40 -0.15 -159.15 2.95 -168.95 3.05 -9.40 9.15 -19.05 16.55 -26.10 8.30 -7.95 17.50 -12.80 29.50 -15.65 3.55 -0.85 10.05 -0.95 114.95 -1.05 110.70 -0.15 111.20 -0.15 110.50 0.80 -0.85 1.20 -22.70 30.10 -33.95 44.80 -11.60 15.15 -123.35 163.90 -134.30 178.75 -1.95 2.60 -7.90 10.60 -13.20 17.75 -5.30 7.15 -12.25 16.50 -15.45 20.75 -3.15 4.25 -11.25 15.20 -18.05 24.25 -6.75 9.10 -15.40 20.75 -19.25 25.95 -3.85 5.15 -12.80 17.20 -19.90 26.75 -7.05 9.50 -14.35 19.40 -16.20 21.95 -1.85 2.50 -3.55 4.60 -3.75 4.60 -0.20 0 -0.40 -69.60 -0.40 -154.60z"
       id="path12"
       style="fill:#1a1a1a;fill-opacity:1" />
    <path
       d="M476 639.15 c0 -0.15 39.10 -52.40 86.90 -116.10 77.55 -103.40 99.45 -132.45 114.50 -152.05 2.40 -3.15 7.55 -9.90 11.40 -14.90 3.80 -5.05 10.95 -14.40 15.80 -20.75 4.90 -6.40 11.80 -15.40 15.40 -20.10 3.55 -4.65 9.10 -11.85 12.25 -16 3.15 -4.10 7.75 -10.15 10.15 -13.35 2.40 -3.20 4.65 -5.85 5 -5.85 0.45 -0.05 0.60 30.30 0.60 150.20 0 166.60 0.25 155.20 -3.30 165.75 -7.20 21.60 -24.30 36.85 -47.10 42.10 l-4.85 1.10 -108.35 0.15 c-59.65 0.10 -108.40 0 -108.40 -0.20z"
       id="path13"
       style="fill:#1a1a1a;fill-opacity:1" />
  </g>
  <g
     fill="#313131"
     id="g15"
     style="fill:#1a1a1a;fill-opacity:1">
    <path
       d="M299.65 551.15 c0.10 -146.45 0.20 -157.15 1 -160.40 2.15 -8.75 4.80 -14.85 9.50 -21.90 8.90 -13.30 21.95 -22.20 38.35 -26.15 3.55 -0.85 9.75 -0.90 114.95 -1.05 109.80 -0.15 111.20 -0.15 110.50 0.80 -0.85 1.15 -17.90 23.65 -37 48.80 -15.90 20.90 -22.55 29.75 -30.60 40.50 -11.80 15.75 -51.20 68.25 -72.10 96 -9.05 12.10 -20.70 27.65 -25.80 34.50 -5.10 6.90 -14.30 19.25 -20.45 27.50 -6.15 8.25 -12.65 17.05 -14.50 19.50 -4.10 5.55 -14.80 19.90 -29.20 39.25 -6 8.10 -12.55 16.90 -14.45 19.50 -6.40 8.65 -13.45 18.15 -20.25 27.15 -3.65 4.95 -7.25 9.80 -7.95 10.90 -0.70 1.05 -1.50 1.95 -1.70 1.95 -0.30 0 -0.40 -66.65 -0.30 -156.85z"
       id="path14"
       style="fill:#1a1a1a;fill-opacity:1" />
    <path
       d="M476 639.15 c0 -0.40 176.35 -235.50 188.05 -250.65 1.80 -2.35 10.20 -13.35 18.70 -24.50 8.50 -11.15 20.95 -27.45 27.70 -36.25 11.75 -15.35 13.65 -17.80 22.20 -29 2.15 -2.75 6.15 -8.10 9 -11.85 2.80 -3.75 5.40 -6.85 5.75 -6.85 0.50 -0.05 0.60 29.85 0.45 152.30 l-0.10 152.40 -1.10 4.50 c-3.15 13.20 -9.20 23.90 -18.60 32.90 -9.75 9.35 -22.65 15.20 -36.80 16.85 -5 0.55 -215.25 0.75 -215.25 0.15z"
       id="path15"
       style="fill:#1a1a1a;fill-opacity:1" />
  </g>
  <g
     fill="#3a3a3a"
     id="g17"
     style="fill:#1a1a1a;fill-opacity:1">
    <path
       d="M299.50 554.25 c0 -105.85 0.15 -155.30 0.55 -158.60 0.70 -6.50 2.45 -12.35 5.65 -18.90 8.65 -17.75 23.15 -29.30 42.90 -34.10 3.45 -0.80 10.35 -0.85 114.85 -1 109.40 -0.15 111.15 -0.15 110.50 0.80 -1.30 1.75 -21.20 27.95 -33.65 44.30 -11.85 15.55 -25.65 33.85 -56.10 74.50 -5.75 7.70 -24.10 32.10 -40.75 54.25 -16.60 22.15 -43.25 57.80 -59.20 79.25 -15.95 21.45 -34.85 46.90 -42 56.50 -7.15 9.65 -15.45 20.75 -18.40 24.75 -2.95 4 -8.65 11.65 -12.65 17 -4 5.35 -8.10 10.95 -9.05 12.40 -1 1.40 -2 2.60 -2.20 2.60 -0.25 0 -0.45 -68.50 -0.45 -153.75z"
       id="path16"
       style="fill:#1a1a1a;fill-opacity:1" />
    <path
       d="M476 639.20 c0 -0.40 174.40 -232.85 190.55 -253.95 4 -5.20 9.50 -12.40 12.20 -16 7.55 -9.95 43.60 -57.10 46.25 -60.50 1.25 -1.65 6.75 -8.80 12.20 -15.85 5.40 -7.10 10.10 -12.90 10.35 -12.90 0.30 0 0.40 56.20 0.30 152.35 l-0.15 152.40 -1.05 4.50 c-3.25 13.45 -9.45 24.30 -19.10 33.30 -9.70 9.10 -22.45 14.85 -36.55 16.45 -4.55 0.55 -215 0.75 -215 0.20z"
       id="path17"
       style="fill:#1a1a1a;fill-opacity:1" />
  </g>
  <g
     fill="#424242"
     id="g19"
     style="fill:#1a1a1a;fill-opacity:1">
    <path
       d="M299.50 554.50 c0 -103.15 0.15 -155.15 0.50 -158.40 2.10 -19.50 14.80 -38.10 32.40 -47.50 5.40 -2.85 13.80 -5.55 20.10 -6.40 4.35 -0.55 23.30 -0.70 113.60 -0.70 l108.40 0 -2.40 3.20 c-3.05 4.15 -16.05 21.30 -27.80 36.80 -23.35 30.70 -34.45 45.45 -54.15 71.75 -7.40 9.90 -28.10 37.45 -45.95 61.25 -17.85 23.80 -37.05 49.45 -42.70 57 -5.60 7.55 -13.45 18.15 -17.45 23.50 -4 5.35 -11.10 14.95 -15.80 21.25 -18.15 24.40 -21.85 29.35 -29.75 40 -4.50 6.05 -9.30 12.60 -10.75 14.50 -1.45 1.95 -7.90 10.65 -14.45 19.40 -6.50 8.75 -12.10 16.35 -12.45 16.85 -0.30 0.55 -0.75 1 -0.95 1 -0.25 0 -0.40 -69.10 -0.40 -153.50z"
       id="path18"
       style="fill:#1a1a1a;fill-opacity:1" />
    <path
       d="M476 639.30 c0 -0.35 8.50 -11.70 62.95 -84.30 112.50 -149.90 119.65 -159.40 137.05 -182.05 3.70 -4.90 9 -11.80 11.75 -15.45 25.50 -33.65 59.35 -77.50 59.80 -77.50 0.25 0 0.45 63.75 0.45 149.65 0 126.30 -0.15 150.40 -0.75 154.85 -1.90 14.05 -7.80 26 -18 36.30 -8.95 9.05 -18.35 14.10 -32.25 17.30 l-4.75 1.10 -108.10 0.15 c-59.50 0.10 -108.15 0.05 -108.15 -0.05z"
       id="path19"
       style="fill:#1a1a1a;fill-opacity:1" />
  </g>
  <g
     fill="#4a4a4a"
     id="g21"
     style="fill:#1a1a1a;fill-opacity:1">
    <path
       d="M299.65 551.40 c0.15 -142.25 0.20 -156.95 0.95 -160.20 5.05 -21.95 20.35 -39.55 40.35 -46.20 10.30 -3.45 0.15 -3.20 122.45 -3.35 60.80 -0.10 110.60 0 110.60 0.20 0 0.45 -15.55 21.05 -44.55 59.15 -11.40 14.95 -107.60 143.15 -124.20 165.50 -4.80 6.45 -12.70 17.05 -17.50 23.50 -4.80 6.45 -12.65 17.05 -17.45 23.50 -47.45 63.85 -58.65 78.90 -63.95 86.10 -3.35 4.60 -6.25 8.35 -6.50 8.35 -0.20 0.05 -0.30 -70.45 -0.20 -156.55z"
       id="path20"
       style="fill:#1a1a1a;fill-opacity:1" />
    <path
       d="M476 639.30 c0 -0.15 1.65 -2.45 3.65 -5.15 60.30 -80.50 175.90 -234.45 181.80 -242.15 2 -2.60 5.90 -7.65 8.60 -11.25 2.70 -3.55 8.55 -11.20 12.95 -17 4.40 -5.75 10.25 -13.40 12.95 -17 6.10 -8 23.35 -30.55 39.20 -51.20 6.60 -8.55 12.15 -15.55 12.40 -15.55 0.70 0 0.60 297.55 -0.10 303.25 -1.75 14.95 -7.80 27.25 -18.70 38.10 -8.70 8.65 -18.15 13.65 -31.75 16.75 l-4.75 1.10 -108.10 0.15 c-59.50 0.10 -108.15 0.05 -108.15 -0.05z"
       id="path21"
       style="fill:#1a1a1a;fill-opacity:1" />
  </g>
  <g
     fill="#525252"
     id="g23"
     style="fill:#1a1a1a;fill-opacity:1">
    <path
       d="M299.65 551.40 c0.15 -142.25 0.20 -156.95 0.95 -160.20 5.10 -22.25 20.45 -39.60 41.10 -46.45 9.50 -3.15 0.35 -2.95 121.70 -3.10 60.80 -0.10 110.60 0 110.60 0.20 0 0.35 -15.15 20.55 -32.95 43.90 -5.25 6.90 -27.30 36.15 -49 65 -21.70 28.90 -45.80 60.95 -53.55 71.25 -12.40 16.45 -24.55 32.80 -55.20 74 -4.40 5.90 -12.95 17.40 -19 25.50 -6.05 8.10 -19.05 25.65 -28.95 38.95 -9.90 13.35 -21.50 28.95 -25.85 34.75 -4.30 5.80 -8.15 11.05 -8.55 11.70 -0.40 0.60 -0.85 1.10 -1.10 1.10 -0.20 0 -0.30 -70.50 -0.20 -156.60z"
       id="path22"
       style="fill:#1a1a1a;fill-opacity:1" />
    <path
       d="M476.10 639.15 c0.35 -0.85 168.50 -225 185.55 -247.40 25.95 -34 49.25 -64.55 57.10 -74.75 6.70 -8.70 17.80 -23.15 22.90 -29.85 3 -3.95 5.65 -7.15 5.90 -7.15 0.30 0 0.40 60.55 0.30 152.10 l-0.10 152.15 -1.10 4.50 c-2.10 8.95 -4.95 15.60 -9.65 22.70 -9.35 13.95 -22.35 22.60 -40.10 26.70 l-4.65 1.05 -108.15 0.15 c-59.50 0.10 -108.10 0 -108 -0.20z"
       id="path23"
       style="fill:#1a1a1a;fill-opacity:1" />
  </g>
  <g
     fill="#5a5a5a"
     id="g25"
     style="fill:#1a1a1a;fill-opacity:1">
    <path
       d="M299.50 554.90 c0 -94.35 0.20 -155.05 0.50 -158.10 0.70 -7.30 2.60 -13.70 6 -20.55 9.70 -19.50 26.45 -31.40 48.15 -34.25 4.60 -0.60 219.85 -0.70 219.85 -0.10 0 0.30 -9 12.20 -45.50 60.35 -18.25 24.10 -20.45 27 -43.10 57.25 -12.50 16.65 -35.30 47.05 -50.65 67.55 -15.40 20.55 -34.65 46.25 -42.75 57.20 -8.10 10.90 -18.55 24.95 -23.20 31.15 -4.60 6.25 -17.75 23.95 -29.20 39.35 -11.45 15.40 -24.85 33.40 -29.75 40 -4.95 6.60 -9.10 12.25 -9.20 12.60 -0.15 0.35 -0.45 0.65 -0.70 0.65 -0.25 0 -0.45 -63.60 -0.45 -153.10z"
       id="path24"
       style="fill:#1a1a1a;fill-opacity:1" />
    <path
       d="M476.10 639.15 c0.25 -0.70 18.70 -25.30 113.60 -151.65 34.35 -45.80 68.15 -90.65 75.05 -99.75 24.75 -32.55 56.45 -73.95 76 -99.40 3.55 -4.60 6.60 -8.20 6.85 -7.95 0.20 0.20 0.35 68.70 0.25 152.15 l-0.10 151.70 -1.10 4.50 c-3.05 13.10 -8.65 23.25 -17.65 32.25 -8.90 8.90 -18.40 14 -32.10 17.15 l-4.65 1.05 -108.15 0.15 c-59.50 0.10 -108.10 0 -108 -0.20z"
       id="path25"
       style="fill:#1a1a1a;fill-opacity:1" />
  </g>
  <g
     fill="#636363"
     id="g27"
     style="fill:#1a1a1a;fill-opacity:1">
    <path
       d="M299.50 554.95 c0 -100.20 0.20 -154.80 0.55 -158.10 1 -10.30 4.10 -18.70 10.30 -28.05 3.90 -5.90 10.80 -12.95 16.05 -16.45 4.70 -3.15 12.90 -7 17.60 -8.35 9.05 -2.55 6.40 -2.50 122.15 -2.50 59.30 0 107.85 0.15 107.85 0.30 0 0.30 -10 13.70 -23.30 31.20 -22.80 30 -44.50 58.70 -65.35 86.50 -12.45 16.65 -36.60 48.85 -53.65 71.55 -17 22.75 -36.25 48.50 -42.75 57.25 -57.55 77.55 -88.95 119.70 -89.25 119.70 -0.10 0 -0.20 -68.85 -0.20 -153.05z"
       id="path26"
       style="fill:#1a1a1a;fill-opacity:1" />
    <path
       d="M476 639.25 c0 -0.15 40.25 -53.85 89.40 -119.40 80.90 -107.70 100.30 -133.50 111.75 -148.35 2 -2.60 9.40 -12.30 16.40 -21.50 12.85 -16.85 26 -34 43.90 -57.35 5.35 -6.95 9.90 -12.50 10.10 -12.35 0.65 0.35 0.55 297.05 -0.05 302.20 -1.05 8.75 -2.75 14.50 -6.50 22 -3.30 6.55 -6.90 11.45 -12.20 16.75 -8.90 8.75 -19.65 14.35 -32.95 17.10 -3.75 0.75 -13.35 0.85 -111.95 1 -59.35 0.10 -107.90 0.05 -107.90 -0.10z"
       id="path27"
       style="fill:#1a1a1a;fill-opacity:1" />
  </g>
  <g
     fill="#6b6b6b"
     id="g29"
     style="fill:#1a1a1a;fill-opacity:1">
    <path
       d="M299.80 552.15 c0.05 -113.25 0.20 -156.80 0.65 -159.15 0.55 -3.30 1.85 -8.15 3.20 -11.80 2.10 -5.70 7.80 -14.75 12.65 -20.15 6.45 -7.10 18.50 -14.50 27.70 -17.05 9.25 -2.55 6.75 -2.50 122.35 -2.50 59.20 0 107.65 0.15 107.65 0.30 0 0.25 -13.15 17.85 -26.30 35.10 -12.70 16.75 -38.95 51.35 -41 54.10 -3.90 5.25 -39.65 52.90 -69 92 -16.20 21.60 -37.40 49.95 -47.05 63 -47.95 64.60 -90.65 122 -90.80 122 -0.05 0 -0.05 -70.15 -0.05 -155.85z"
       id="path28"
       style="fill:#1a1a1a;fill-opacity:1" />
    <path
       d="M476 639.25 c0 -0.20 30.05 -40.30 153.50 -204.75 13.95 -18.55 30.25 -40.15 36.20 -48 6 -7.85 16.80 -22 24 -31.45 7.15 -9.45 15.10 -19.80 17.55 -23 2.50 -3.20 7.65 -9.95 11.50 -15 3.85 -5.05 8.35 -10.90 10 -13 1.65 -2.15 6.45 -8.40 10.70 -13.95 4.25 -5.55 7.90 -9.95 8.10 -9.80 0.65 0.40 0.60 296.10 -0.05 301.95 -1.75 15.45 -7.90 28.25 -18.70 39 -8.75 8.65 -19.10 14.10 -32.15 16.85 l-5.40 1.15 -107.60 0.10 c-59.20 0.05 -107.65 0 -107.65 -0.10z"
       id="path29"
       style="fill:#1a1a1a;fill-opacity:1" />
  </g>
  <g
     fill="#737373"
     id="g31"
     style="fill:#1a1a1a;fill-opacity:1">
    <path
       d="M299.85 552 c0.10 -172.30 -0.15 -159.35 3.25 -168.90 6.80 -19.35 22.90 -34.35 42.20 -39.40 8.50 -2.20 7 -2.20 120.85 -2.20 59.30 0 107.85 0.15 107.85 0.30 0 0.25 -12.35 16.75 -29.25 38.95 -19.95 26.25 -41.60 55 -55.65 73.75 -7.95 10.60 -31.40 41.90 -52.15 69.55 -20.75 27.65 -41.45 55.35 -46 61.50 -13.95 18.85 -25.65 34.55 -36.20 48.70 -5.55 7.45 -15 20.15 -21 28.25 -14.55 19.65 -33.80 45.50 -33.90 45.50 -0.05 0 -0.05 -70.20 0 -156z"
       id="path30"
       style="fill:#1a1a1a;fill-opacity:1" />
    <path
       d="M476 639.15 c0 -0.10 42.70 -57.05 146 -194.65 30.55 -40.65 84.35 -111.45 103.70 -136.50 4.50 -5.80 14.30 -18.60 17.90 -23.35 1.95 -2.55 3.70 -4.55 3.90 -4.40 0.60 0.40 0.55 296.10 -0.05 302 -0.95 8.85 -2.80 15.05 -7 23.25 -9.90 19.30 -28.85 31.60 -51.70 33.55 -3.95 0.35 -41.45 0.45 -109.35 0.35 -56.90 -0.10 -103.40 -0.20 -103.40 -0.25z"
       id="path31"
       style="fill:#1a1a1a;fill-opacity:1" />
  </g>
  <g
     fill="#7b7b7b"
     id="g33"
     style="fill:#1a1a1a;fill-opacity:1">
    <path
       d="M299.85 551.95 c0.10 -172.20 -0.15 -159.35 3.25 -168.85 6.85 -19.50 22.50 -34.05 42.40 -39.40 8 -2.20 7.75 -2.20 120.90 -2.20 59.15 0 107.60 0.15 107.60 0.30 0 0.25 -17 22.85 -32.65 43.45 -15.25 20 -31.45 41.50 -47.35 62.70 -9.20 12.35 -30.25 40.40 -46.80 62.35 -16.50 21.95 -38.90 51.90 -49.70 66.45 -10.85 14.60 -28.25 38 -38.65 52 -10.45 14.05 -22.05 29.65 -25.80 34.70 -19.55 26.35 -32.20 43.35 -32.75 43.90 -0.40 0.45 -0.50 -38.15 -0.45 -155.40z"
       id="path32"
       style="fill:#1a1a1a;fill-opacity:1" />
    <path
       d="M476 639.15 c0 -0.05 41.70 -55.65 130.25 -173.65 34.60 -46.10 57.60 -76.55 70.05 -92.85 3.80 -4.95 9.30 -12.15 12.20 -15.95 6.85 -9 32.60 -42.65 40.55 -53 3.40 -4.45 8.90 -11.60 12.15 -15.90 3.25 -4.25 6.10 -7.70 6.25 -7.60 0.15 0.10 0.25 68.25 0.25 151.40 -0.05 142.40 -0.10 151.40 -0.95 155.90 -2.85 15.20 -11.70 29.75 -23.65 38.75 -7.85 5.90 -16.30 9.65 -26.80 11.80 -5 1.05 -5.60 1.05 -112.65 1.15 -59.20 0 -107.65 0 -107.65 -0.05z"
       id="path33"
       style="fill:#1a1a1a;fill-opacity:1" />
  </g>
  <g
     fill="#848484"
     id="g35"
     style="fill:#1a1a1a;fill-opacity:1">
    <path
       d="M299.85 552.65 c0.10 -111.60 0.25 -156.50 0.65 -159.35 2.60 -18.45 15.75 -36.30 33 -45.05 4.75 -2.40 12.35 -4.90 17.75 -5.85 2.70 -0.45 29.30 -0.60 113.10 -0.60 60.30 -0.05 109.65 0 109.65 0.10 0 0.20 -11.60 15.60 -27.20 36.10 -20.95 27.55 -21.05 27.70 -81.55 108.25 -31.35 41.80 -67.40 89.95 -80.05 107 -60.60 81.60 -85.25 114.75 -85.35 114.75 -0.05 0 -0.05 -69.90 0 -155.35z"
       id="path34"
       style="fill:#1a1a1a;fill-opacity:1" />
    <path
       d="M476.40 638.75 c0.15 -0.25 1.20 -1.75 2.35 -3.25 1.15 -1.50 25.40 -33.80 53.85 -71.75 68.60 -91.55 122.05 -162.70 133.55 -177.75 5.15 -6.75 12.60 -16.50 16.60 -21.75 15.15 -19.90 26.25 -34.40 35.55 -46.60 3 -3.90 10.75 -13.95 17.20 -22.40 l11.75 -15.35 0.15 151.70 c0.10 136.10 0.05 152.10 -0.70 155.90 -2.35 12.75 -8.80 24.85 -18.15 34 -7.45 7.30 -17 12.65 -27.80 15.60 l-6 1.65 -63.50 0.15 c-34.90 0.05 -84.10 0.15 -109.35 0.25 -30.40 0.05 -45.70 -0.05 -45.50 -0.40z"
       id="path35"
       style="fill:#1a1a1a;fill-opacity:1" />
  </g>
  <g
     fill="#8c8c8c"
     id="g37"
     style="fill:#1a1a1a;fill-opacity:1">
    <path
       d="M299.85 552.15 c0.10 -105.30 0.30 -156.55 0.65 -158.90 3.80 -25.45 26 -47.40 51.30 -50.80 3.25 -0.40 33.15 -0.60 113.30 -0.65 59.90 0 108.90 0 108.90 0.10 0 0.15 -22.30 29.75 -35 46.35 -7.95 10.45 -96.10 127.65 -118.40 157.45 -10.45 14 -21.20 28.45 -50.10 67.35 -60.45 81.35 -70.05 94.20 -70.40 94.35 -0.20 0.05 -0.30 -69.80 -0.25 -155.25z"
       id="path36"
       style="fill:#1a1a1a;fill-opacity:1" />
    <path
       d="M476.55 638.50 c0.55 -0.90 14.70 -19.80 110.30 -147.05 39.15 -52.10 75.05 -99.85 79.90 -106.20 4.80 -6.30 11.75 -15.40 15.40 -20.15 3.60 -4.80 9.20 -12.10 12.35 -16.25 3.15 -4.20 10.25 -13.45 15.75 -20.60 8.50 -11.10 32.65 -42.60 36.10 -47.05 l1.10 -1.45 0 151.55 c0.05 166.85 0.25 155.20 -3 164.90 -6.75 20.10 -22.80 35.15 -43.70 40.90 l-6 1.65 -68.75 0.15 c-37.80 0.05 -87 0.15 -109.35 0.25 -35.95 0.10 -40.50 0 -40.10 -0.65z"
       id="path37"
       style="fill:#1a1a1a;fill-opacity:1" />
  </g>
  <g
     fill="#949494"
     id="g39"
     style="fill:#1a1a1a;fill-opacity:1">
    <path
       d="M299.85 552.15 c0.10 -100.35 0.30 -156.55 0.65 -158.70 0.75 -5.15 2.85 -11.80 5.30 -16.75 9.45 -19.30 27.35 -32.15 47.95 -34.35 4.10 -0.45 33.10 -0.55 112.90 -0.45 l107.35 0.10 -12.75 16.90 c-7 9.25 -16.70 22.05 -21.50 28.35 -9.05 11.85 -45.95 60.90 -101.55 135.05 -30.15 40.15 -36.25 48.35 -59.50 79.70 -5.20 7 -14.50 19.50 -20.70 27.80 -6.20 8.30 -16.55 22.20 -23 30.95 -22.55 30.40 -34.60 46.50 -34.95 46.65 -0.15 0.05 -0.25 -69.80 -0.20 -155.25z"
       id="path38"
       style="fill:#1a1a1a;fill-opacity:1" />
    <path
       d="M476.50 638.85 c0 -0.55 173.15 -231.20 200.95 -267.60 26.10 -34.25 68.95 -90.25 69.60 -91 0.25 -0.25 0.40 64.95 0.30 153 l-0.10 153.50 -1.35 4.75 c-6.45 23.45 -22.50 39.40 -45.95 45.85 l-5.20 1.40 -109.15 0.25 c-60 0.15 -109.10 0.10 -109.10 -0.15z"
       id="path39"
       style="fill:#1a1a1a;fill-opacity:1" />
  </g>
  <g
     fill="#9c9c9c"
     id="g41"
     style="fill:#1a1a1a;fill-opacity:1">
    <path
       d="M300 549.90 l0.25 -157.65 1.35 -4.50 c6.15 -20.85 20.55 -36.30 39.80 -42.75 4.60 -1.55 11.65 -2.90 15.85 -3.05 1.40 -0.05 50.70 -0.05 109.65 0 l107.10 0.05 -12.75 16.85 c-7 9.30 -16.70 22.10 -21.50 28.40 -4.85 6.35 -21.45 28.40 -36.95 49 -15.50 20.65 -40.20 53.50 -54.85 73 -27.10 36.05 -41.30 55.05 -63.70 85.25 -6.85 9.20 -16.30 21.95 -21 28.25 -9.40 12.60 -24.40 32.80 -29.95 40.25 -1.90 2.60 -9.05 12.20 -15.80 21.25 -6.75 9.10 -13.40 18 -14.75 19.85 -1.40 1.90 -2.60 3.40 -2.75 3.40 -0.15 0 -0.15 -70.95 0 -157.60z"
       id="path40"
       style="fill:#1a1a1a;fill-opacity:1" />
    <path
       d="M476.50 638.85 c0 -0.40 169.85 -226.80 188.95 -251.85 6.40 -8.40 16.05 -21.05 21.45 -28.15 5.45 -7.15 19.20 -25.15 30.60 -40 11.40 -14.90 22.65 -29.55 24.95 -32.60 2.30 -3 4.40 -5.70 4.65 -6 0.20 -0.25 0.35 67.40 0.25 153 l-0.10 153.50 -1.40 5 c-2.65 9.45 -6.50 16.90 -12.65 24.55 -8.80 10.95 -20.10 17.80 -35.45 21.55 -3.25 0.80 -11.65 0.90 -112.40 1.15 -59.85 0.15 -108.85 0.10 -108.85 -0.15z"
       id="path41"
       style="fill:#1a1a1a;fill-opacity:1" />
  </g>
  <g
     fill="#a5a5a5"
     id="g43"
     style="fill:#1a1a1a;fill-opacity:1">
    <path
       d="M300 550.15 l0.25 -157.40 1.15 -4.25 c2.10 -7.85 6.45 -16.65 11.30 -22.90 2.90 -3.75 9.45 -10.20 12.85 -12.55 4.30 -3.05 10.80 -6.35 15.70 -8 9.70 -3.25 2.40 -3.05 123.05 -3.05 l109.65 0 -11.60 15.35 c-6.35 8.50 -17.65 23.40 -25.10 33.15 -18.45 24.30 -26.20 34.55 -51.65 68.50 -12.05 16.10 -32.45 43.30 -45.40 60.50 -21.90 29.15 -32.45 43.30 -64.90 87 -7.05 9.50 -16.80 22.60 -21.70 29.15 -14.20 19.10 -22.70 30.55 -28.85 38.85 -13.30 17.95 -24.40 32.75 -24.70 32.90 -0.15 0.05 -0.20 -70.70 -0.05 -157.25z"
       id="path42"
       style="fill:#1a1a1a;fill-opacity:1" />
    <path
       d="M476.50 638.75 c0 -0.40 176.15 -235 193.15 -257.25 2.85 -3.70 12.35 -16.20 21.15 -27.75 8.85 -11.55 21.05 -27.50 27.15 -35.50 6.15 -7.95 15.25 -19.85 20.20 -26.35 l9.10 -11.85 0.15 151.10 c0.10 134.30 0 151.60 -0.65 155.60 -2 11.65 -6.55 21.30 -14.55 30.75 -7.20 8.55 -16.10 14.50 -27.35 18.25 -10.25 3.45 -3.20 3.25 -121.45 3.25 -58.80 0 -106.90 -0.10 -106.90 -0.25z"
       id="path43"
       style="fill:#1a1a1a;fill-opacity:1" />
  </g>
  <g
     fill="#adadad"
     id="g45"
     style="fill:#1a1a1a;fill-opacity:1">
    <path
       d="M300 550.15 l0.25 -157.40 1.35 -4.90 c1.60 -5.70 5.15 -13.50 8.70 -18.85 2.95 -4.55 10.20 -12.20 14.65 -15.45 6.25 -4.60 13.30 -7.90 21.80 -10.20 l4 -1.10 111.65 -0.10 111.60 -0.15 -3.90 5.10 c-2.15 2.85 -8.50 11.25 -14.10 18.65 -5.60 7.45 -12.75 16.90 -15.90 21 -14.35 18.85 -35.45 46.80 -50 66.25 -8.75 11.70 -29.50 39.35 -46.15 61.50 -26.60 35.45 -37.65 50.25 -69.20 92.75 -4.10 5.50 -15.90 21.35 -26.25 35.25 -10.30 13.90 -21.20 28.50 -24.15 32.50 -12.85 17.40 -24 32.25 -24.30 32.40 -0.15 0.05 -0.20 -70.70 -0.05 -157.25z"
       id="path44"
       style="fill:#1a1a1a;fill-opacity:1" />
    <path
       d="M476.50 638.80 c0 -0.25 30.80 -41.30 144.50 -192.80 29.95 -39.90 67.40 -89.25 95.65 -126 6 -7.85 15.35 -20.05 20.75 -27.10 l9.85 -12.85 0.15 150.85 c0.10 137.10 0.05 151.30 -0.70 155.80 -2.70 16.60 -12.35 31.75 -26.45 41.60 -5.35 3.75 -13.55 7.25 -21.65 9.30 l-4.35 1.10 -108.85 0.15 c-59.90 0.10 -108.90 0.05 -108.90 -0.05z"
       id="path45"
       style="fill:#1a1a1a;fill-opacity:1" />
  </g>
  <g
     fill="#b5b5b5"
     id="g47"
     style="fill:#1a1a1a;fill-opacity:1">
    <path
       d="M300.15 550.25 l0.10 -157.50 1.40 -5 c2.85 -10.10 8.25 -19.55 15.55 -27.15 8.50 -8.80 17.30 -13.95 29.50 -17.25 l4.05 -1.10 111.60 -0.10 111.60 -0.15 -13.90 18.35 c-7.65 10.15 -18.05 23.85 -23.10 30.50 -13.30 17.45 -31.80 42.05 -48.35 64.15 -7.95 10.60 -29 38.70 -46.90 62.50 -17.85 23.80 -36.05 48.10 -40.45 54 -4.40 5.90 -12.15 16.40 -17.25 23.25 -5.10 6.90 -10.95 14.75 -13 17.50 -2.05 2.75 -10.25 13.80 -18.25 24.50 -8 10.75 -18.35 24.65 -23 30.95 -4.70 6.35 -12.95 17.45 -18.40 24.75 -5.45 7.30 -10.20 13.75 -10.60 14.30 -0.60 0.85 -0.70 -20.80 -0.60 -156.50z"
       id="path46"
       style="fill:#1a1a1a;fill-opacity:1" />
    <path
       d="M476.85 638.35 c0.55 -0.95 10.25 -13.90 63.70 -85.10 100.30 -133.65 118.60 -158 130.25 -173.25 40.95 -53.60 51.30 -67.15 53.90 -70.50 1.60 -2.05 7.30 -9.55 12.70 -16.60 l9.85 -12.85 0.15 150.85 c0.15 165.60 0.30 155.35 -2.75 164.55 -7.75 23.15 -25.80 38.60 -50.10 42.80 -6 1.05 -218.35 1.15 -217.70 0.10z"
       id="path47"
       style="fill:#1a1a1a;fill-opacity:1" />
  </g>
  <g
     fill="#bdbdbd"
     id="g49"
     style="fill:#1a1a1a;fill-opacity:1">
    <path
       d="M300.15 550.25 l0.10 -157.50 1.15 -4 c3.25 -11.50 8.20 -20.30 15.80 -28.20 8.40 -8.65 16.70 -13.55 28.80 -16.95 l4.75 -1.35 111.60 -0.15 111.60 -0.10 -8.85 11.70 c-4.85 6.45 -13.70 18.10 -19.60 25.85 -5.90 7.80 -13.65 18 -17.20 22.65 -9.80 12.90 -131.25 174.85 -141.60 188.85 -11.55 15.60 -24.80 33.40 -38.30 51.55 -5.85 7.85 -15.70 21.10 -21.90 29.45 -6.20 8.35 -14.30 19.30 -18.10 24.35 -3.75 5 -7.15 9.65 -7.60 10.25 -0.70 1 -0.75 -14.10 -0.65 -156.40z"
       id="path48"
       style="fill:#1a1a1a;fill-opacity:1" />
    <path
       d="M476.85 638.40 c0.25 -0.35 2.15 -2.90 4.15 -5.65 6.80 -9.25 172.20 -229.65 180.50 -240.50 5 -6.55 20.50 -26.85 36.05 -47.25 6.20 -8.10 13.40 -17.55 16.05 -21 2.60 -3.45 11 -14.35 18.60 -24.20 7.60 -9.90 14.15 -18.45 14.55 -19 0.60 -0.90 0.70 18.40 0.60 152.20 l-0.10 153.25 -1.35 4.85 c-5.05 18.35 -15.35 31.65 -31.20 40.45 -4.40 2.40 -8.85 4.10 -15.40 5.85 l-5.05 1.35 -108.95 0.15 c-87.90 0.10 -108.85 0 -108.45 -0.50z"
       id="path49"
       style="fill:#1a1a1a;fill-opacity:1" />
  </g>
  <g
     fill="#c5c5c5"
     id="g51"
     style="fill:#1a1a1a;fill-opacity:1">
    <path
       d="M300.05 552.65 c-0.05 -108.95 0.10 -156.25 0.50 -159 1.70 -12.15 8.60 -25.30 18.25 -34.70 9.20 -8.95 20.35 -14.50 33.20 -16.45 2.10 -0.30 42.60 -0.50 112.60 -0.50 l109.35 0 -9 11.90 c-11.95 15.80 -27.35 36.10 -31.90 42.05 -5.15 6.60 -112.85 150 -124.55 165.80 -2.85 3.85 -9.70 13.10 -15.25 20.50 -5.50 7.45 -11.70 15.75 -13.75 18.50 -2.05 2.75 -8.30 11.20 -13.95 18.75 -5.60 7.55 -18.95 25.45 -29.55 39.75 -10.60 14.30 -22.70 30.55 -26.85 36.15 -4.15 5.55 -7.90 10.60 -8.30 11.25 -0.70 1 -0.80 -13.50 -0.80 -154z"
       id="path50"
       style="fill:#1a1a1a;fill-opacity:1" />
    <path
       d="M476.85 638.40 c0.30 -0.35 3.85 -5.15 7.90 -10.65 16.45 -22.20 167.40 -223.20 181.75 -242.05 5.70 -7.40 16.40 -21.50 23.85 -31.25 7.40 -9.70 16.25 -21.35 19.70 -25.80 3.40 -4.40 9 -11.70 12.45 -16.20 3.45 -4.50 8.35 -10.85 10.90 -14.15 2.55 -3.35 6.70 -8.80 9.25 -12.15 l4.60 -6.10 0.15 150.85 c0.15 165.75 0.35 154.40 -2.75 164.35 -6.10 19.50 -22.05 35.35 -41.40 40.95 -10.05 2.95 -4.15 2.80 -120.20 2.80 -85.25 0 -106.55 -0.15 -106.20 -0.60z"
       id="path51"
       style="fill:#1a1a1a;fill-opacity:1" />
  </g>
  <g
     fill="#cecece"
     id="g53"
     style="fill:#1a1a1a;fill-opacity:1">
    <path
       d="M300 552.40 c0 -170.75 -0.20 -158.90 3 -168.50 2.95 -8.75 7.80 -16.65 14.65 -23.75 8.15 -8.45 17 -13.40 30.35 -17 3.05 -0.80 10.45 -0.90 114.65 -1 l111.35 -0.15 -4.10 5.35 c-2.30 3 -8.15 10.70 -13 17.15 -4.90 6.45 -12.85 16.95 -17.65 23.25 -8.45 11.10 -38.50 51 -95.55 127 -25.75 34.30 -36.80 49.10 -53.45 71.50 -15.45 20.85 -23.30 31.40 -32.75 44.05 -5.35 7.20 -13.50 18.15 -18.05 24.30 -4.55 6.10 -12.30 16.55 -17.20 23.15 -4.95 6.60 -11.95 16 -15.60 20.95 l-6.65 8.95 0 -155.25z"
       id="path52"
       style="fill:#1a1a1a;fill-opacity:1" />
    <path
       d="M476.85 638.40 c0.30 -0.35 4.50 -6.05 9.40 -12.65 10.45 -14.05 33.55 -44.85 109.70 -146.25 49 -65.25 65.70 -87.40 86.40 -114.50 2.85 -3.70 7.10 -9.35 9.55 -12.50 2.40 -3.15 11.40 -14.95 20.05 -26.25 16.10 -21 17.05 -22.25 28.60 -37.25 l6.70 -8.75 0.15 150.50 c0.10 137.30 0.05 150.95 -0.70 155.50 -2.20 13.45 -7.80 24.35 -17.70 34.30 -7.65 7.75 -15.95 12.80 -25.85 15.70 -9.75 2.85 -4.75 2.75 -120.35 2.75 -85.05 0 -106.30 -0.15 -105.95 -0.60z"
       id="path53"
       style="fill:#1a1a1a;fill-opacity:1" />
  </g>
  <g
     fill="#d6d6d6"
     id="g55"
     style="fill:#1a1a1a;fill-opacity:1">
    <path
       d="M300 552.85 c0 -107.40 0.15 -155.95 0.55 -158.65 2.15 -15.35 11.35 -30.75 24.20 -40.35 7.45 -5.55 18.30 -10.05 27.45 -11.30 2.65 -0.40 38.05 -0.55 112.90 -0.55 l109.05 0 -1 1.15 c-0.55 0.60 -4.55 5.85 -8.95 11.60 -8.05 10.75 -17.30 22.90 -27 35.70 -17.35 22.80 -27.55 36.25 -33.15 43.80 -3.45 4.65 -13.50 18.05 -22.25 29.75 -30.10 40.05 -75.60 100.75 -79.30 105.75 -2.05 2.75 -8.25 11.10 -13.75 18.50 -5.55 7.45 -12.05 16.20 -14.50 19.50 -2.45 3.30 -8.05 10.85 -12.45 16.75 -15.90 21.40 -23.70 31.90 -28.80 38.75 -2.85 3.85 -8.80 11.85 -13.20 17.75 -4.40 5.90 -10.65 14.35 -13.90 18.70 l-5.90 7.95 0 -154.80z"
       id="path54"
       style="fill:#1a1a1a;fill-opacity:1" />
    <path
       d="M477.55 637.40 c1.40 -2 161.15 -214.90 174.40 -232.40 5.05 -6.75 15.35 -20.25 22.80 -30 7.45 -9.75 16.80 -22 20.75 -27.25 4 -5.20 12.20 -15.95 18.25 -23.85 6.05 -7.85 16.05 -20.90 22.25 -29 l11.25 -14.65 0.15 150.50 c0.10 136.45 0.05 150.95 -0.65 155.50 -2.20 13.45 -8.80 25.90 -18.85 35.55 -8.40 8.05 -17.65 12.90 -30.55 16.05 -3.35 0.80 -10.60 0.90 -112.25 1 l-108.70 0.15 1.15 -1.60z"
       id="path55"
       style="fill:#1a1a1a;fill-opacity:1" />
  </g>
  <g
     fill="#dedede"
     id="g57"
     style="fill:#1a1a1a;fill-opacity:1">
    <path
       d="M300 552.75 c0 -100.25 0.20 -156.25 0.50 -158.50 2.20 -15.45 11.45 -30.80 24.25 -40.40 7.45 -5.55 18.30 -10.05 27.45 -11.30 2.65 -0.40 38.05 -0.55 112.95 -0.55 l109.05 0 -1.30 1.40 c-0.65 0.75 -5.05 6.40 -9.65 12.60 -4.65 6.20 -9.50 12.60 -10.75 14.25 -1.30 1.65 -5.55 7.30 -9.50 12.50 -3.95 5.25 -11.05 14.55 -15.75 20.75 -4.70 6.20 -14.05 18.55 -20.75 27.50 -6.70 8.95 -18.90 25.25 -27.20 36.25 -8.25 11 -27.50 36.65 -42.75 57 -15.30 20.35 -32.85 43.85 -39.05 52.20 -20.85 28.10 -27.80 37.40 -51.35 69.05 -6.85 9.20 -14.10 19 -16.15 21.75 -2.05 2.75 -8.55 11.55 -14.50 19.50 -5.95 8 -11.85 15.95 -13.15 17.75 l-2.35 3.20 0 -154.95z"
       id="path56"
       style="fill:#1a1a1a;fill-opacity:1" />
    <path
       d="M477.60 637.40 c1.10 -1.60 76.20 -101.70 145.20 -193.65 19 -25.30 40.05 -53.20 46.80 -62 6.70 -8.80 21.40 -28.05 32.65 -42.75 11.25 -14.70 21.80 -28.50 23.45 -30.65 1.70 -2.20 4.65 -6 6.55 -8.50 1.95 -2.55 6.10 -7.95 9.25 -12.05 l5.75 -7.45 0.15 150.45 c0.10 137.15 0.05 150.90 -0.70 155.45 -1.45 9.05 -4.95 17.65 -10.35 25.75 -3 4.50 -11.45 13.05 -15.65 15.85 -6.55 4.45 -14.60 7.85 -23.35 10 -3.35 0.80 -10.65 0.85 -112.25 1 l-108.70 0.15 1.20 -1.60z"
       id="path57"
       style="fill:#1a1a1a;fill-opacity:1" />
  </g>
  <g
     fill="#e6e6e6"
     id="g59"
     style="fill:#1a1a1a;fill-opacity:1">
    <path
       d="M300 553 c0 -168.15 -0.15 -159.10 2.70 -168.25 0.70 -2.20 2.25 -5.90 3.40 -8.25 7.90 -15.55 20 -26.20 35.80 -31.50 9.35 -3.15 3.70 -3 123.30 -3 l109 0 -1.30 1.40 c-0.70 0.75 -6 7.65 -11.80 15.35 -5.75 7.70 -14 18.60 -18.30 24.25 -16.25 21.30 -28.45 37.50 -58.60 77.75 -9.70 12.95 -48.60 64.65 -53.75 71.50 -2.65 3.50 -26.40 35.30 -33.95 45.50 -2.85 3.85 -9.15 12.30 -13.95 18.75 -4.80 6.45 -10.30 13.90 -12.25 16.50 -1.90 2.60 -8.35 11.30 -14.30 19.25 -10.50 14.05 -18.25 24.50 -29 39 -2.85 3.85 -9.70 13.10 -15.25 20.50 -5.55 7.45 -10.45 14.05 -10.90 14.75 -0.80 1.15 -0.85 -8.55 -0.85 -153.50z"
       id="path58"
       style="fill:#1a1a1a;fill-opacity:1" />
    <path
       d="M477.10 638.10 c3 -4.15 26.05 -34.85 58.85 -78.60 88.95 -118.45 125.25 -166.75 131.95 -175.50 3.90 -5.10 10.40 -13.65 14.45 -19 8 -10.50 19.70 -25.75 47.30 -61.70 l17.60 -22.95 0.15 149.70 c0.10 111.35 0 150.85 -0.45 154.15 -2.15 16.75 -11.30 32.45 -24.65 42.40 -4.90 3.65 -13.70 8 -19.55 9.65 -9.95 2.85 -5 2.75 -120.15 2.75 -101.85 0 -106.15 -0.05 -105.50 -0.90z"
       id="path59"
       style="fill:#1a1a1a;fill-opacity:1" />
  </g>
  <g
     fill="#efefef"
     id="g61"
     style="fill:#1a1a1a;fill-opacity:1">
    <path
       d="M300.10 550.75 l0.15 -157 1.35 -5 c6.15 -23.10 22.90 -39.65 45.90 -45.40 l4.25 -1.05 111.25 -0.15 111.20 -0.15 -1.25 1.35 c-0.70 0.80 -6.15 7.80 -12.05 15.65 -5.90 7.85 -14.40 19.10 -18.90 25 -4.50 5.90 -13.45 17.70 -19.90 26.20 -6.40 8.50 -12.30 16.25 -13.05 17.25 -1.75 2.30 -69.10 92.10 -79.70 106.25 -4.30 5.80 -8.65 11.55 -9.60 12.80 -1.75 2.30 -22.50 30.10 -29.25 39.25 -7.55 10.20 -13.55 18.30 -22.05 29.75 -23.60 31.70 -31.85 42.75 -38.95 52.35 -4.25 5.70 -12.05 16.20 -17.35 23.30 -5.35 7.10 -10.25 13.75 -10.90 14.75 l-1.25 1.85 0.10 -157z"
       id="path60"
       style="fill:#1a1a1a;fill-opacity:1" />
    <path
       d="M480.15 634.15 c2 -2.70 6.55 -8.85 10.15 -13.65 7 -9.45 65.80 -87.80 129.80 -173 22.20 -29.55 45.40 -60.30 51.50 -68.35 12.05 -15.75 17.50 -22.85 24.95 -32.65 2.60 -3.45 8.80 -11.55 13.75 -18 4.95 -6.45 10.90 -14.20 13.20 -17.25 2.30 -3 5.10 -6.65 6.20 -8.05 1.15 -1.40 5.55 -7.15 9.80 -12.70 l7.75 -10.15 0.15 150.45 c0.10 147.80 0.10 150.55 -0.90 155.95 -1.20 6.90 -2.45 10.65 -5.45 17 -7.20 14.95 -20.25 26.55 -35.80 31.70 -10.75 3.55 0 3.25 -120.40 3.40 l-108.40 0.15 3.70 -4.85z m12.75 3.60 c-0.50 -0.55 -2.40 -0.70 -2.65 -0.20 -0.20 0.25 0.40 0.45 1.30 0.45 0.90 0 1.50 -0.10 1.35 -0.25z m7.20 -0.40 c-0.75 -0.35 -1.30 -0.35 -1.65 0 -0.30 0.30 0.05 0.50 1.15 0.50 1.50 0 1.50 -0.05 0.50 -0.50z m26.45 -62.20 c0.55 -0.50 1.25 -1.30 1.50 -1.75 0.75 -1.35 -0.60 -0.60 -1.95 1.15 -1.30 1.65 -1.15 1.90 0.45 0.60z m5.10 -6.90 c0.95 -1.65 1.05 -2.05 0.40 -1.65 -0.75 0.45 -1.50 1.70 -2.40 3.85 -0.65 1.55 0.85 -0.05 2 -2.20z m14.90 -19.65 c0.40 -0.75 1.15 -1.70 1.70 -2.20 0.55 -0.45 0.85 -1 0.65 -1.20 -0.45 -0.45 -2.90 2.25 -2.90 3.20 0 0.30 -0.20 0.60 -0.45 0.60 -0.25 0 -0.55 0.35 -0.70 0.70 -0.50 1.30 0.95 0.35 1.70 -1.10z m5.25 -7.45 c-0.30 -0.35 -2.25 1.85 -2.30 2.60 0 0.25 0.60 -0.15 1.30 -0.90 0.70 -0.80 1.15 -1.55 1 -1.70z m2.30 -2.60 c0.45 -0.55 0.70 -1.05 0.60 -1.20 -0.10 -0.10 0.10 -0.50 0.55 -0.85 0.85 -0.70 1 -1.50 0.30 -1.50 -0.25 0 -0.70 0.70 -1.05 1.55 -0.35 0.85 -0.95 1.85 -1.35 2.25 -0.40 0.40 -0.55 0.70 -0.30 0.70 0.25 0 0.80 -0.45 1.25 -0.95z m8.90 -11.80 c0.65 -0.70 1 -1.40 0.85 -1.60 -0.20 -0.15 -0.40 -0.20 -0.45 -0.10 -0.10 0.10 -0.70 0.80 -1.35 1.60 -1.55 1.70 -0.65 1.80 0.95 0.10z m9 -12.25 c0.30 -0.55 0.45 -1 0.35 -1 -0.10 0 -0.60 0.45 -1.10 1 -0.50 0.55 -0.65 1 -0.35 1 0.30 0 0.80 -0.45 1.10 -1z m39.65 -53.15 c-0.15 -0.20 -0.65 0.15 -1.20 0.85 -1.30 1.70 -1.20 2.05 0.25 0.70 0.65 -0.65 1.05 -1.35 0.95 -1.55z m92.15 -122.25 c-0.20 -0.15 -0.55 0 -0.80 0.40 -0.75 1.20 -0.55 1.65 0.30 0.75 0.45 -0.45 0.65 -0.95 0.50 -1.15z"
       id="path61"
       style="fill:#1a1a1a;fill-opacity:1" />
  </g>
  <g
     fill="#f7f7f7"
     id="g63"
     style="fill:#1a1a1a;fill-opacity:1">
    <path
       d="M300.15 550.65 c0.10 -145.95 0.20 -156.65 1 -159.90 3.70 -15.10 11.30 -27.20 22.65 -36.05 6.75 -5.25 13.85 -8.65 23.70 -11.30 l4.25 -1.15 110.90 -0.10 c89.55 -0.15 110.85 -0.05 110.55 0.45 -0.40 0.70 -14 18.75 -24.95 33.15 -12 15.75 -13 17.05 -19.95 26.30 -3.85 5.05 -9.45 12.45 -12.50 16.45 -7 9.25 -7.55 9.95 -29.65 39.50 -10.20 13.60 -20.40 27.25 -22.70 30.25 -5.45 7.25 -21.35 28.40 -24.20 32.30 -0.55 0.75 -7 9.30 -14.30 19 -7.30 9.75 -15.50 20.75 -18.25 24.45 -2.75 3.70 -9.70 13.05 -15.45 20.75 -5.70 7.70 -11.60 15.60 -13 17.50 -1.45 1.95 -7.85 10.60 -14.30 19.25 -6.45 8.65 -19.25 25.90 -28.45 38.25 -9.20 12.40 -19.65 26.45 -23.25 31.25 -3.60 4.80 -7.75 10.40 -9.20 12.40 -1.50 1.95 -2.75 3.60 -2.90 3.60 -0.10 0 -0.10 -70.35 0 -156.35z m4.20 149.75 c8.85 -11.85 11.80 -15.75 17.65 -23.65 7.10 -9.60 11.60 -15.70 13.25 -18.05 0.95 -1.35 5.80 -7.95 6.60 -8.95 0.45 -0.55 6.50 -8.70 9.85 -13.25 1.15 -1.50 2.15 -2.85 2.30 -3 0.15 -0.15 1.15 -1.50 2.25 -3 3.15 -4.25 9.45 -12.65 10.10 -13.50 0.35 -0.40 1.75 -2.30 3.15 -4.25 1.40 -1.90 2.80 -3.85 3.15 -4.25 0.90 -1.10 4.40 -5.95 5.85 -8.05 0.70 -1 1.95 -2.70 2.85 -3.75 0.90 -1.10 3.75 -4.85 6.35 -8.45 4.90 -6.70 9.15 -12.40 15.45 -20.80 2 -2.60 4.05 -5.40 4.60 -6.15 0.55 -0.80 1.70 -2.25 2.50 -3.30 0.85 -1.05 4.10 -5.45 7.25 -9.70 6.75 -9.15 17.10 -23 19.90 -26.55 1.10 -1.35 3.20 -4.20 4.70 -6.30 1.50 -2.05 4.50 -6.10 6.75 -9 7.15 -9.25 15.25 -20.20 15.55 -20.95 0.15 -0.40 0.45 -0.85 0.65 -1 0.25 -0.20 2.90 -3.55 7.85 -10 0.50 -0.70 4.15 -5.50 8.05 -10.75 3.95 -5.20 7.65 -10.15 8.30 -11 3.65 -4.80 6.25 -8.35 6.25 -8.55 0 -0.15 0.30 -0.55 0.65 -0.90 0.30 -0.35 1.10 -1.30 1.70 -2.10 11.60 -15.45 28.95 -38.50 30.65 -40.75 5.80 -7.45 12.80 -16.65 13.50 -17.65 1.25 -1.80 3.60 -4.90 5.60 -7.30 1 -1.25 3.25 -4.20 5 -6.55 5.85 -7.95 12.65 -17 16 -21.35 1.85 -2.40 3.30 -4.40 3.20 -4.45 -0.10 -0.10 -49.10 -0.15 -108.95 -0.20 -112.65 0 -110.90 -0.05 -118.35 2.05 -20 5.55 -35.75 21.45 -41.70 42.05 -0.70 2.50 -1.45 6.90 -1.75 10.65 -0.40 4.40 -0.55 52.20 -0.55 155.85 0 145.25 0.05 149.45 0.95 149.45 0.50 0 1.75 -1.10 2.90 -2.60z"
       id="path62"
       style="fill:#1a1a1a;fill-opacity:1" />
    <path
       d="M489.85 621.15 c7.35 -9.85 18.40 -24.65 24.60 -32.90 8.85 -11.80 31.45 -41.95 37.30 -49.80 23.05 -30.90 112.90 -150.15 123.10 -163.45 1.20 -1.50 5.40 -7 9.35 -12.25 3.95 -5.20 10 -13.15 13.40 -17.55 3.35 -4.45 8.30 -10.85 10.90 -14.25 2.60 -3.40 7.40 -9.70 10.75 -14.05 3.30 -4.30 10.95 -14.25 17 -22.15 l11 -14.35 0.15 20.95 c0.05 11.50 0.05 79.95 -0.05 152.15 l-0.15 131.25 -1.05 4.50 c-5.15 21.70 -19.25 38.10 -39.15 45.60 -1.80 0.70 -5.60 1.85 -8.50 2.55 l-5.25 1.30 -108.35 0.15 -108.40 0.15 13.35 -17.85z m199.65 16.75 c16.90 -1.45 32.40 -9.20 42.30 -21.15 6.65 -7.95 12.15 -19.10 13.45 -27 0.15 -1.10 0.50 -2.90 0.80 -4 0.30 -1.25 0.50 -59.20 0.60 -153.05 l0.10 -151 -2.70 3.75 c-1.50 2.10 -2.85 3.90 -3 4.05 -0.35 0.25 -11.10 14.35 -17.95 23.50 -1.70 2.35 -4.65 6.15 -6.55 8.50 -1.85 2.35 -4.10 5.25 -4.95 6.50 -0.90 1.25 -2.85 3.85 -4.35 5.75 -1.55 1.95 -5 6.45 -7.70 10 -2.75 3.60 -6.50 8.55 -8.40 11 -1.90 2.50 -4.90 6.40 -6.70 8.75 -1.80 2.35 -4.70 6.15 -6.50 8.45 -1.75 2.25 -4.65 6.15 -6.45 8.60 -1.80 2.40 -5.60 7.50 -8.50 11.25 -2.90 3.75 -5.70 7.45 -6.25 8.20 -0.55 0.75 -3.45 4.60 -6.45 8.55 -5.30 6.95 -16.90 22.40 -20.30 27.05 -2.40 3.30 -13.70 18.10 -14 18.40 -0.15 0.15 -1 1.25 -1.90 2.50 -5.05 6.90 -9.90 13.35 -10.45 13.90 -0.35 0.40 -1.70 2.20 -3 4 -3.25 4.55 -12.80 17.40 -14.60 19.65 -1.20 1.45 -6.25 8.15 -12.20 16.15 -0.60 0.80 -1.70 2.25 -2.45 3.20 -0.80 0.95 -1.40 1.90 -1.40 2.05 0 0.15 -0.50 0.85 -1.15 1.55 -0.60 0.70 -1.80 2.20 -2.60 3.30 -1.15 1.60 -26.60 35.50 -32.60 43.50 -0.60 0.80 -2.45 3.25 -4.05 5.50 -1.60 2.20 -3.30 4.45 -3.75 5 -0.45 0.50 -1.85 2.40 -3.20 4.20 -1.30 1.80 -2.50 3.35 -2.65 3.50 -0.30 0.30 -2.90 3.75 -4 5.30 -0.40 0.55 -2.20 2.95 -4 5.30 -3.60 4.75 -20.95 27.85 -28.90 38.50 -2.80 3.75 -5.10 6.90 -5.10 7 0 0.45 206.55 0.25 211.50 -0.20z"
       id="path63"
       style="fill:#1a1a1a;fill-opacity:1" />
  </g>
  <g
     fill="#ffffff"
     id="g125"
     style="fill:#1a1a1a;fill-opacity:1">
    <path
       d="m 302.8,702.9 c 3.3,-4.6 7.8,-10.4 8.05,-10.4 0.15,0 -0.3,0.75 -0.95,1.65 -0.7,0.85 -2.85,3.8 -4.85,6.5 -3.85,5.05 -5.55,6.8 -2.25,2.25 z"
       id="path64"
       style="fill:#1a1a1a;fill-opacity:1" />
    <path
       d="m 300.2,698 c 0,-2.6 0.05,-3.7 0.15,-2.35 0.1,1.3 0.1,3.4 0,4.75 -0.1,1.3 -0.15,0.2 -0.15,-2.4 z"
       id="path65"
       style="fill:#1a1a1a;fill-opacity:1" />
    <path
       d="m 312.5,689.9 c 1.9,-2.65 4.25,-5.4 3.7,-4.4 -0.65,1.2 -4.75,6.5 -5,6.5 -0.15,0 0.45,-0.95 1.3,-2.1 z"
       id="path66"
       style="fill:#1a1a1a;fill-opacity:1" />
    <path
       d="m 300.15,688 c 0,-1.5 0.1,-2.15 0.2,-1.35 0.1,0.75 0.1,1.95 0,2.75 -0.1,0.75 -0.2,0.1 -0.2,-1.4 z"
       id="path67"
       style="fill:#1a1a1a;fill-opacity:1" />
    <path
       d="m 319.5,680.5 c 1.65,-2.35 4,-5.5 5.15,-7 1.15,-1.5 3.25,-4.3 4.6,-6.25 2.75,-3.75 7.8,-10.6 21.7,-29.25 18.15,-24.35 25.85,-34.8 26.55,-35.8 0.4,-0.6 3.75,-5.1 7.45,-10 3.7,-4.95 10.6,-14.1 15.3,-20.45 4.7,-6.3 10.9,-14.6 13.8,-18.45 2.85,-3.8 5.55,-7.4 5.95,-8 2.85,-4.05 32.8,-43.75 33.65,-44.55 l 1,-1 -0.7,1 c -0.4,0.6 -10.75,14.4 -23,30.75 -12.25,16.35 -25.55,34.15 -29.5,39.5 -12.4,16.6 -24.95,33.55 -28.65,38.5 -3.65,4.95 -10.7,14.4 -31.6,42.5 -6.85,9.2 -14.6,19.65 -17.2,23.2 -2.6,3.55 -5.4,7.15 -6.15,8 -0.8,0.85 -0.05,-0.35 1.65,-2.7 z"
       id="path68"
       style="fill:#1a1a1a;fill-opacity:1" />
    <path
       d="m 300.1,681 c 0,-0.95 0.1,-1.35 0.25,-0.85 0.1,0.45 0.1,1.25 0,1.75 -0.15,0.45 -0.25,0.05 -0.25,-0.9 z"
       id="path69"
       style="fill:#1a1a1a;fill-opacity:1" />
    <path
       d="m 300.1,677 c 0,-0.95 0.1,-1.35 0.25,-0.85 0.1,0.45 0.1,1.25 0,1.75 -0.15,0.45 -0.25,0.05 -0.25,-0.9 z"
       id="path70"
       style="fill:#1a1a1a;fill-opacity:1" />
    <path
       d="m 300.15,673.25 c 0,-1.1 0.1,-1.5 0.2,-0.85 0.1,0.6 0.1,1.5 0,2 -0.15,0.45 -0.25,-0.05 -0.2,-1.15 z"
       id="path71"
       style="fill:#1a1a1a;fill-opacity:1" />
    <path
       d="m 300.15,664 c 0,-1.5 0.1,-2.15 0.2,-1.35 0.1,0.75 0.1,1.95 0,2.75 -0.1,0.75 -0.2,0.1 -0.2,-1.4 z"
       id="path72"
       style="fill:#1a1a1a;fill-opacity:1" />
    <path
       d="m 300.1,657 c 0,-0.95 0.1,-1.35 0.25,-0.85 0.1,0.45 0.1,1.25 0,1.75 -0.15,0.45 -0.25,0.05 -0.25,-0.9 z"
       id="path73"
       style="fill:#1a1a1a;fill-opacity:1" />
    <path
       d="m 300.1,653 c 0,-0.95 0.1,-1.35 0.25,-0.85 0.1,0.45 0.1,1.25 0,1.75 -0.15,0.45 -0.25,0.05 -0.25,-0.9 z"
       id="path74"
       style="fill:#1a1a1a;fill-opacity:1" />
    <path
       d="m 300.15,647.25 c 0,-2.2 0.1,-3.05 0.2,-1.85 0.1,1.15 0.1,2.95 0,4 -0.1,1 -0.2,0.05 -0.2,-2.15 z"
       id="path75"
       style="fill:#1a1a1a;fill-opacity:1" />
    <path
       d="m 300.15,640.25 c 0,-1.65 0.1,-2.25 0.2,-1.35 0.1,0.9 0.1,2.25 0,3 -0.1,0.75 -0.2,0 -0.2,-1.65 z"
       id="path76"
       style="fill:#1a1a1a;fill-opacity:1" />
    <path
       d="m 476.5,638.8 c 0,-0.1 0.4,-0.5 0.85,-0.85 0.55,-0.5 0.7,-0.5 0.45,-0.1 -0.3,0.5 21.05,0.65 105.3,0.8 l 105.65,0.1 -106.1,0.15 c -58.4,0.05 -106.15,0 -106.15,-0.1 z"
       id="path77"
       style="fill:#1a1a1a;fill-opacity:1" />
    <path
       d="m 690.4,638.15 c 0.6,-0.1 1.6,-0.1 2.25,0 0.6,0.1 0.1,0.2 -1.15,0.2 -1.25,0 -1.75,-0.1 -1.1,-0.2 z"
       id="path78"
       style="fill:#1a1a1a;fill-opacity:1" />
    <path
       d="m 479.3,635.25 c 1.7,-2.25 2.05,-2.25 0.6,0 -0.65,0.95 -1.35,1.75 -1.55,1.75 -0.2,0 0.2,-0.8 0.95,-1.75 z"
       id="path79"
       style="fill:#1a1a1a;fill-opacity:1" />
    <path
       d="m 703.75,635.5 c 0.55,-0.25 1.35,-0.45 1.75,-0.45 0.45,0 0.4,0.2 -0.25,0.45 -0.55,0.25 -1.35,0.45 -1.75,0.45 -0.45,0 -0.4,-0.2 0.25,-0.45 z"
       id="path80"
       style="fill:#1a1a1a;fill-opacity:1" />
    <path
       d="m 300.1,633 c 0,-0.95 0.1,-1.35 0.25,-0.85 0.1,0.45 0.1,1.25 0,1.75 -0.15,0.45 -0.25,0.05 -0.25,-0.9 z"
       id="path81"
       style="fill:#1a1a1a;fill-opacity:1" />
    <path
       d="m 712.95,631.75 c 1.8,-0.95 3.3,-1.65 3.4,-1.55 0.2,0.2 -5.6,3.3 -6.15,3.3 -0.25,0 1,-0.8 2.75,-1.75 z"
       id="path82"
       style="fill:#1a1a1a;fill-opacity:1" />
    <path
       d="m 483.8,629.25 c 2.8,-3.75 4.25,-5.2 2.1,-2.1 -3.4,4.85 -4.2,5.8 -4.55,5.85 -0.2,0 0.9,-1.7 2.45,-3.75 z"
       id="path83"
       style="fill:#1a1a1a;fill-opacity:1" />
    <path
       d="m 717,629.85 c 0,-0.1 1.3,-1.05 2.9,-2.05 1.55,-1 2.25,-1.35 1.5,-0.7 -1.5,1.3 -4.4,3.1 -4.4,2.75 z"
       id="path84"
       style="fill:#1a1a1a;fill-opacity:1" />
    <path
       d="m 488.2,623.35 c 0.8,-1 1.5,-1.85 1.65,-1.85 0.35,0 -1.8,2.9 -2.45,3.3 -0.35,0.2 0.05,-0.45 0.8,-1.45 z"
       id="path85"
       style="fill:#1a1a1a;fill-opacity:1" />
    <path
       d="m 728,621.4 c 1.2,-1.35 2.25,-2.4 2.35,-2.4 0.4,0 0,0.45 -2.2,2.5 l -2.4,2.25 z"
       id="path86"
       style="fill:#1a1a1a;fill-opacity:1" />
    <path
       d="m 491.3,619.25 c 1.7,-2.25 2.05,-2.25 0.6,0 -0.65,0.95 -1.35,1.75 -1.55,1.75 -0.2,0 0.2,-0.8 0.95,-1.75 z"
       id="path87"
       style="fill:#1a1a1a;fill-opacity:1" />
    <path
       d="m 300.15,616 c 0,-1.5 0.1,-2.15 0.2,-1.35 0.1,0.75 0.1,1.95 0,2.75 -0.1,0.75 -0.2,0.1 -0.2,-1.4 z"
       id="path88"
       style="fill:#1a1a1a;fill-opacity:1" />
    <path
       d="m 732.55,616.25 c 0.7,-0.85 2.05,-2.55 2.95,-3.85 0.9,-1.35 1.75,-2.4 1.85,-2.4 0.55,0 -3.9,6.05 -5.15,7 -0.5,0.4 -0.35,0.05 0.35,-0.75 z"
       id="path89"
       style="fill:#1a1a1a;fill-opacity:1" />
    <path
       d="m 498.45,609.75 c 0.55,-0.8 1.6,-2.15 2.3,-3 l 1.35,-1.5 -1.05,1.5 c -0.55,0.85 -1.6,2.2 -2.3,3 l -1.35,1.5 z"
       id="path90"
       style="fill:#1a1a1a;fill-opacity:1" />
    <path
       d="m 300.1,609 c 0,-0.95 0.1,-1.35 0.25,-0.85 0.1,0.45 0.1,1.25 0,1.75 -0.15,0.45 -0.25,0.05 -0.25,-0.9 z"
       id="path91"
       style="fill:#1a1a1a;fill-opacity:1" />
    <path
       d="m 740.85,603.15 c 1,-2.15 2.4,-5.8 3.2,-8.15 0.8,-2.35 1.4,-3.9 1.45,-3.45 0.05,1.8 -5.4,15.45 -6.2,15.45 -0.15,0 0.55,-1.75 1.55,-3.85 z"
       id="path92"
       style="fill:#1a1a1a;fill-opacity:1" />
    <path
       d="m 506.15,599.4 c 13,-17.45 33.65,-44.85 34.25,-45.4 1,-1 -1.1,2.1 -3.6,5.3 -1.15,1.45 -3.15,4.15 -4.55,6 -1.35,1.9 -2.65,3.7 -2.85,3.95 -0.45,0.55 -3.95,5.15 -5.75,7.55 -0.6,0.8 -2.15,2.9 -3.5,4.6 -1.3,1.75 -3.2,4.3 -4.15,5.6 -3.45,4.8 -10.55,14 -10.8,14 -0.15,0 0.3,-0.75 0.95,-1.6 z"
       id="path93"
       style="fill:#1a1a1a;fill-opacity:1" />
    <path
       d="m 747.25,430.75 c 0,-82.75 0.05,-116.7 0.1,-75.4 0.1,41.3 0.1,109 0,150.5 -0.05,41.45 -0.1,7.7 -0.1,-75.1 z"
       id="path94"
       style="fill:#1a1a1a;fill-opacity:1" />
    <path
       d="m 300.1,569 c 0,-0.95 0.1,-1.35 0.25,-0.85 0.1,0.45 0.1,1.25 0,1.75 -0.15,0.45 -0.25,0.05 -0.25,-0.9 z"
       id="path95"
       style="fill:#1a1a1a;fill-opacity:1" />
    <path
       d="m 541.55,552.2 c 0.45,-0.5 4.1,-5.4 8.15,-10.8 4.05,-5.45 7.5,-9.9 7.65,-9.9 0.3,0 -0.3,0.85 -3.15,4.6 -1.1,1.45 -4.35,5.75 -7.2,9.55 -2.85,3.8 -5.4,7.05 -5.7,7.2 -0.3,0.2 -0.2,-0.1 0.25,-0.65 z"
       id="path96"
       style="fill:#1a1a1a;fill-opacity:1" />
    <path
       d="m 559.55,528.2 c 0.4,-0.5 3.1,-4.05 5.9,-7.8 2.85,-3.8 5.3,-6.9 5.4,-6.9 0.25,0 -1.5,2.6 -3.05,4.55 -0.6,0.7 -1.55,1.95 -2.15,2.75 -4.6,6.2 -5.8,7.75 -6.3,8.05 -0.35,0.15 -0.25,-0.1 0.2,-0.65 z"
       id="path97"
       style="fill:#1a1a1a;fill-opacity:1" />
    <path
       d="m 573.8,509.4 c 1.55,-2.15 2.9,-3.9 3.05,-3.9 0.3,0 -2.6,4.1 -4.35,6 -0.85,0.95 -0.3,0 1.3,-2.1 z"
       id="path98"
       style="fill:#1a1a1a;fill-opacity:1" />
    <path
       d="m 582.25,497.95 c 5.2,-6.95 8.15,-10.55 5.7,-6.95 -2.2,3.3 -10,13.5 -10.55,13.8 -0.3,0.2 1.9,-2.9 4.85,-6.85 z"
       id="path99"
       style="fill:#1a1a1a;fill-opacity:1" />
    <path
       d="m 457,496 c 1.45,-2.05 3.05,-4.2 3.55,-4.8 0.55,-0.55 3.05,-3.85 5.6,-7.3 2.5,-3.45 8.3,-11.2 12.85,-17.2 4.55,-6 8.6,-11.4 9,-12 2.75,-3.9 14.15,-18.7 14.35,-18.7 0.15,0 0.05,0.3 -0.2,0.65 -0.3,0.3 -7.5,9.95 -16.05,21.35 -25.65,34.25 -30.15,40.2 -30.95,41 -0.4,0.4 0.4,-0.95 1.85,-3 z"
       id="path100"
       style="fill:#1a1a1a;fill-opacity:1" />
    <path
       d="m 594.3,481.9 c 5.05,-6.75 7.95,-10.3 6.15,-7.55 -1.85,2.9 -10.75,14.6 -11.1,14.65 -0.2,0 2,-3.2 4.95,-7.1 z"
       id="path101"
       style="fill:#1a1a1a;fill-opacity:1" />
    <path
       d="m 606.3,465.9 c 5.25,-7.05 7.95,-10.35 5.65,-6.85 -2.65,3.95 -10.25,13.9 -10.6,13.9 -0.2,0.05 2,-3.15 4.95,-7.05 z"
       id="path102"
       style="fill:#1a1a1a;fill-opacity:1" />
    <path
       d="m 629.6,434.9 c 21.5,-28.7 42.9,-56.9 43.2,-56.9 0.3,0 -2.8,4.25 -7.3,10.05 -5.3,6.9 -24.2,31.95 -38.45,51.05 -7.3,9.8 -13.45,17.85 -13.7,17.9 -0.2,0 7.1,-9.95 16.25,-22.1 z"
       id="path103"
       style="fill:#1a1a1a;fill-opacity:1" />
    <path
       d="m 300.1,441 c 0,-0.95 0.1,-1.35 0.25,-0.85 0.1,0.45 0.1,1.25 0,1.75 -0.15,0.45 -0.25,0.05 -0.25,-0.9 z"
       id="path104"
       style="fill:#1a1a1a;fill-opacity:1" />
    <path
       d="m 503.55,433.9 c 1.45,-2.05 4.75,-6.45 36.55,-48.3 4.65,-6.1 8.65,-11.2 8.9,-11.35 0.45,-0.3 -8.45,11.7 -16.55,22.25 -2.1,2.7 -15.9,20.95 -24.9,32.9 -2.55,3.35 -4.75,6.1 -4.85,6.1 -0.15,0 0.25,-0.75 0.85,-1.6 z"
       id="path105"
       style="fill:#1a1a1a;fill-opacity:1" />
    <path
       d="m 300.2,405 c 0,-3.45 0.05,-4.85 0.15,-3.1 0.1,1.7 0.1,4.5 0,6.25 -0.1,1.7 -0.15,0.3 -0.15,-3.15 z"
       id="path106"
       style="fill:#1a1a1a;fill-opacity:1" />
    <path
       d="m 300.65,395.25 c 0,-1.1 0.1,-1.5 0.2,-0.85 0.1,0.6 0.1,1.5 0,2 -0.15,0.45 -0.25,-0.05 -0.2,-1.15 z"
       id="path107"
       style="fill:#1a1a1a;fill-opacity:1" />
    <path
       d="m 301.1,391.75 c 0,-1.05 1.25,-5.35 1.35,-4.5 0,0.3 -0.3,1.65 -0.65,3 -0.4,1.4 -0.7,2.05 -0.7,1.5 z"
       id="path108"
       style="fill:#1a1a1a;fill-opacity:1" />
    <path
       d="m 303.55,382.85 c -0.05,-0.6 2.05,-5.4 2.25,-5.2 0.15,0.1 -0.35,1.4 -1,2.9 -0.7,1.5 -1.25,2.5 -1.25,2.3 z"
       id="path109"
       style="fill:#1a1a1a;fill-opacity:1" />
    <path
       d="m 674.1,376.1 c 4.45,-6.05 7.95,-10.3 6.6,-7.95 -0.6,1 -6.85,8.85 -7.05,8.85 -0.1,0 0.1,-0.4 0.45,-0.9 z"
       id="path110"
       style="fill:#1a1a1a;fill-opacity:1" />
    <path
       d="m 308,373 c 0.9,-1.7 4.5,-7 4.75,-7 0.25,0 -4.55,7.5 -5.1,8 -0.15,0.15 0,-0.3 0.35,-1 z"
       id="path111"
       style="fill:#1a1a1a;fill-opacity:1" />
    <path
       d="m 549.85,372.9 c 0.3,-0.35 2.1,-2.85 4.1,-5.5 1.95,-2.65 3.85,-5 4.2,-5.2 0.45,-0.3 0.45,-0.2 0.05,0.35 -0.3,0.4 -2.3,3 -4.4,5.85 -2.15,2.8 -4,5.1 -4.15,5.1 -0.15,0 -0.05,-0.3 0.2,-0.6 z"
       id="path112"
       style="fill:#1a1a1a;fill-opacity:1" />
    <path
       d="m 684.8,362 c 2.1,-2.75 4.05,-5.15 4.35,-5.35 0.35,-0.2 0.15,0.25 -0.4,0.95 -0.55,0.7 -2.35,3.1 -4,5.35 -1.65,2.2 -3.2,4 -3.4,4.05 -0.25,0 1.3,-2.25 3.45,-5 z"
       id="path113"
       style="fill:#1a1a1a;fill-opacity:1" />
    <path
       d="m 317.75,360 c 1.65,-1.65 3.05,-3 3.2,-3 0.4,0 -5.2,5.9 -5.7,5.95 -0.25,0 0.85,-1.3 2.5,-2.95 z"
       id="path114"
       style="fill:#1a1a1a;fill-opacity:1" />
    <path
       d="m 562.05,356.7 c 2.05,-2.75 5.25,-6.95 7.1,-9.45 l 3.45,-4.5 -108.45,-0.25 -108.4,-0.25 108.9,-0.15 c 87,-0.1 108.85,0.05 108.55,0.55 -1,1.6 -13.8,18.35 -14.25,18.65 -0.3,0.2 1.1,-1.9 3.1,-4.6 z"
       id="path115"
       style="fill:#1a1a1a;fill-opacity:1" />
    <path
       d="m 690.05,355.25 c 0.3,-0.45 5.7,-7.55 17.55,-23.1 2.75,-3.65 5.15,-6.65 5.25,-6.65 0.35,0 -7.6,10.9 -8.35,11.5 -0.2,0.15 -3.05,3.85 -6.4,8.25 -5.35,7.05 -8.95,11.6 -8.05,10 z"
       id="path116"
       style="fill:#1a1a1a;fill-opacity:1" />
    <path
       d="m 332.5,349.25 c 0,-0.35 3.05,-1.85 3.3,-1.65 0.1,0.15 -0.6,0.6 -1.55,1.05 -0.95,0.45 -1.75,0.75 -1.75,0.6 z"
       id="path117"
       style="fill:#1a1a1a;fill-opacity:1" />
    <path
       d="m 338,346.6 c 0.4,-0.25 1.3,-0.65 2,-0.8 0.85,-0.25 1,-0.2 0.5,0.1 -0.4,0.25 -1.3,0.65 -2,0.8 -0.85,0.25 -1,0.2 -0.5,-0.1 z"
       id="path118"
       style="fill:#1a1a1a;fill-opacity:1" />
    <path
       d="m 343.75,344.5 c 0.55,-0.25 1.35,-0.45 1.75,-0.45 0.45,0 0.4,0.2 -0.25,0.45 -0.55,0.25 -1.35,0.45 -1.75,0.45 -0.45,0 -0.4,-0.2 0.25,-0.45 z"
       id="path119"
       style="fill:#1a1a1a;fill-opacity:1" />
    <path
       d="m 347.5,343.5 c 0.7,-0.2 1.7,-0.4 2.25,-0.4 0.8,0 0.75,0.1 -0.25,0.4 -0.7,0.2 -1.7,0.4 -2.25,0.4 -0.8,0 -0.75,-0.1 0.25,-0.4 z"
       id="path120"
       style="fill:#1a1a1a;fill-opacity:1" />
    <path
       d="m 352.4,342.65 c 0.6,-0.1 1.6,-0.1 2.25,0 0.6,0.1 0.1,0.2 -1.15,0.2 -1.25,0 -1.75,-0.1 -1.1,-0.2 z"
       id="path121"
       style="fill:#1a1a1a;fill-opacity:1" />
    <path
       d="m 713.5,324.75 c 0,-0.4 6.05,-8.25 6.35,-8.25 0.15,0 0.05,0.3 -0.2,0.65 -0.3,0.3 -1.8,2.25 -3.35,4.3 -1.55,2 -2.8,3.5 -2.8,3.3 z"
       id="path122"
       style="fill:#1a1a1a;fill-opacity:1" />
    <path
       d="m 721.2,314.35 c 0.8,-1 1.5,-1.85 1.65,-1.85 0.35,0 -1.8,2.9 -2.45,3.3 -0.35,0.2 0.05,-0.45 0.8,-1.45 z"
       id="path123"
       style="fill:#1a1a1a;fill-opacity:1" />
    <path
       d="m 725.95,308.25 c 0.55,-0.8 1.75,-2.3 2.6,-3.25 1.35,-1.5 1.4,-1.55 0.55,-0.25 -0.55,0.85 -1.75,2.3 -2.6,3.25 -1.35,1.5 -1.45,1.55 -0.55,0.25 z"
       id="path124"
       style="fill:#1a1a1a;fill-opacity:1" />
    <path
       d="m 732.25,300 c 1.25,-1.65 2.45,-3 2.55,-3 0.15,0 -0.2,0.6 -0.8,1.4 -0.55,0.75 -1.55,2.1 -2.15,2.95 -0.6,0.9 -1.3,1.65 -1.5,1.65 -0.25,0 0.65,-1.35 1.9,-3 z"
       id="path125"
       style="fill:#1a1a1a;fill-opacity:1" />
  </g>
</svg>
