<?xml version="1.0" encoding="UTF-8"?>
<svg id="Layer_1" data-name="Layer 1" xmlns="http://www.w3.org/2000/svg" viewBox="0 0 414.96 96.18">
  <defs>
    <style>
      .cls-1 {
        fill: #1d1e1c;
      }
    </style>
  </defs>
  <g>
    <path class="cls-1" d="M400.06,86.77c-1.18-3.69-2.4-7.2-3.41-10.76-1.12-3.96,2.38-7.57,6.37-6.53,2.87.74,5.69,1.73,8.46,2.78,2.38.9,2.46.96,3.47-1.91-2.86-1.17-5.74-2.35-9.18-3.75,1.09-.46,1.66-.72,2.25-.95,1.94-.77,3.89-1.54,5.84-2.29,1.25-.48,1.2-1.18.57-2.2-.63-1-1.26-.87-2.21-.48-2.44,1-4.88,2.05-7.41,2.73-5.39,1.45-9.27-2.46-7.77-7.76.66-2.34,1.48-4.64,2.37-6.9.96-2.42,1.01-2.44-1.86-3.44-1.18,2.88-2.37,5.78-3.57,8.68-1.03-1.5-1.49-2.96-2.07-4.36-.61-1.47-1.33-2.88-1.98-4.26-2.31.61-2.64,1.58-1.72,3.48,1.02,2.11,1.6,4.44,2.34,6.68.71,2.17.9,4.34-1,6.01-2.1,1.84-4.54,2.66-7.31,1.69-2.36-.82-4.74-1.6-7.02-2.61-1.32-.58-1.83-.04-2.39.96-.69,1.24.24,1.6,1.03,1.93,1.87.78,3.78,1.46,5.66,2.19.56.22,1.1.5,2.16,1-2.94,1.17-5.3,2.07-7.64,3.06-.73.31-1.88.51-1.2,1.82.55,1.06,1.08,1.61,2.52,1.02,2.92-1.21,5.93-2.27,8.99-3.05,3.85-.98,7.38,2.73,6.29,6.53-.89,3.11-1.94,6.19-3.15,9.19-.54,1.35.17,1.66.99,2.18.97.61,1.65.4,2.07-.66.8-2.01,1.58-4.02,2.38-6.03.19-.49.45-.95.81-1.71.97,2.52,1.71,4.62,2.59,6.66,1.16,2.68,1.38,2.7,3.7,1.05Z"/>
    <path class="cls-1" d="M403.88,56.98l-.39-.43c.26-.57.52-1.13.77-1.7.84-1.91,1.75-3.8,2.46-5.76.16-.46-.31-1.63-.59-1.66-.7-.08-1.88.08-2.11.53-1.71,3.34-3.24,6.78-4.59,9.68,1.11,1.27,2.19,2.52,3.12,3.59,3.21-1.5,6.48-3.08,9.8-4.54,1.15-.5,1.04-1.19.78-2.11-.29-1.05-.88-1.22-1.82-.8-1.84.83-3.69,1.63-5.54,2.43-.62.27-1.25.51-1.88.77Z"/>
    <path class="cls-1" d="M402.73,72.1c-1.22,1.15-2.39,2.25-3.48,3.28,1.43,3.03,3.07,6.27,4.49,9.61.55,1.29,1.42,1.26,2.21.8.44-.26.81-1.35.63-1.86-.7-1.96-1.64-3.83-2.47-5.75-.23-.54-.36-1.11-.67-2.08,2.88,1.26,5.26,2.31,7.65,3.33.83.35,1.7.68,2.06-.64.27-1,.32-1.69-.92-2.22-3.33-1.43-6.58-3.06-9.52-4.46Z"/>
    <path class="cls-1" d="M380.43,85.23c1.51.47,2.62,1.62,3.5-.37,1.47-3.31,3.05-6.57,4.38-9.42-1.09-1.15-2.23-2.35-3.31-3.49-3.01,1.43-6.33,3.09-9.72,4.58-1.18.52-1.03,1.15-.8,2.08.29,1.14,1,1.15,1.85.8,1.81-.75,3.6-1.55,5.39-2.33.69-.3,1.37-.6,2.62-1.15-1.46,3.46-2.66,6.32-3.91,9.3Z"/>
    <path class="cls-1" d="M388.4,57.81c-1.4-2.98-3.02-6.24-4.46-9.58-.53-1.23-1.19-1.19-2.21-.91-1.31.37-1.03,1.19-.66,2.06.81,1.86,1.63,3.71,2.44,5.56.24.56.44,1.14.65,1.72l-.41.37c-.63-.29-1.27-.58-1.9-.86-1.86-.81-3.69-1.68-5.59-2.35-.4-.14-1.42.4-1.52.79-.15.59.07,1.71.47,1.92,3.36,1.7,6.8,3.24,9.64,4.56,1.19-1.1,2.37-2.19,3.55-3.29Z"/>
    <path class="cls-1" d="M400.06,86.77c-2.31,1.65-2.54,1.63-3.7-1.05-.88-2.04-1.62-4.14-2.59-6.66-.36.76-.61,1.23-.81,1.71-.8,2.01-1.59,4.02-2.38,6.03-.42,1.06-1.1,1.27-2.07.66-.82-.51-1.53-.82-.99-2.18,1.21-3,2.26-6.08,3.15-9.19,1.09-3.8-2.44-7.51-6.29-6.53-3.06.78-6.07,1.85-8.99,3.05-1.45.6-1.97.05-2.52-1.02-.68-1.31.47-1.51,1.2-1.82,2.33-.99,4.7-1.89,7.64-3.06-1.06-.49-1.59-.77-2.16-1-1.89-.74-3.8-1.42-5.66-2.19-.79-.33-1.72-.69-1.03-1.93.56-1,1.07-1.54,2.39-.96,2.28,1,4.66,1.79,7.02,2.61,2.77.97,5.22.15,7.31-1.69,1.9-1.67,1.71-3.84,1-6.01-.74-2.24-1.32-4.57-2.34-6.68-.92-1.9-.59-2.88,1.72-3.48.64,1.38,1.37,2.79,1.98,4.26.58,1.41,1.04,2.86,2.07,4.36,1.19-2.9,2.39-5.81,3.57-8.68,2.87,1,2.81,1.02,1.86,3.44-.9,2.26-1.71,4.56-2.37,6.9-1.49,5.31,2.38,9.22,7.77,7.76,2.53-.68,4.97-1.73,7.41-2.73.95-.39,1.58-.52,2.21.48.64,1.02.68,1.72-.57,2.2-1.95.75-3.9,1.52-5.84,2.29-.58.23-1.15.49-2.25.95,3.43,1.4,6.31,2.58,9.18,3.75-1.02,2.87-1.1,2.81-3.47,1.91-2.77-1.05-5.59-2.04-8.46-2.78-3.99-1.04-7.49,2.57-6.37,6.53,1.01,3.56,2.23,7.07,3.41,10.76Z"/>
    <path class="cls-1" d="M403.88,56.98c.63-.26,1.26-.5,1.88-.77,1.85-.8,3.71-1.6,5.54-2.43.94-.42,1.53-.25,1.82.8.25.92.37,1.61-.78,2.11-3.32,1.46-6.59,3.04-9.8,4.54-.93-1.07-2.01-2.32-3.12-3.59,1.35-2.9,2.88-6.34,4.59-9.68.23-.45,1.41-.61,2.11-.53.28.03.75,1.21.59,1.66-.71,1.96-1.62,3.85-2.46,5.76-.25.57-.51,1.13-.77,1.7l.39.43Z"/>
    <path class="cls-1" d="M402.73,72.1c2.94,1.39,6.19,3.02,9.52,4.46,1.24.53,1.2,1.22.92,2.22-.36,1.32-1.23,1-2.06.64-2.39-1.02-4.77-2.07-7.65-3.33.31.97.44,1.55.67,2.08.82,1.92,1.77,3.79,2.47,5.75.18.51-.19,1.6-.63,1.86-.8.47-1.66.49-2.21-.8-1.43-3.33-3.06-6.58-4.49-9.61,1.09-1.03,2.25-2.13,3.48-3.28Z"/>
    <path class="cls-1" d="M380.43,85.23c1.25-2.98,2.46-5.84,3.91-9.3-1.25.55-1.94.85-2.62,1.15-1.8.78-3.59,1.57-5.39,2.33-.84.35-1.56.35-1.85-.8-.23-.93-.38-1.56.8-2.08,3.39-1.48,6.71-3.14,9.72-4.58,1.08,1.14,2.22,2.34,3.31,3.49-1.33,2.85-2.91,6.11-4.38,9.42-.88,1.99-1.99.84-3.5.37Z"/>
    <path class="cls-1" d="M388.4,57.81c-1.18,1.09-2.36,2.18-3.55,3.29-2.84-1.32-6.28-2.86-9.64-4.56-.41-.21-.62-1.33-.47-1.92.1-.39,1.12-.93,1.52-.79,1.9.67,3.74,1.54,5.59,2.35.64.28,1.27.57,1.9.86l.41-.37c-.22-.57-.41-1.16-.65-1.72-.8-1.86-1.63-3.71-2.44-5.56-.37-.86-.65-1.69.66-2.06,1.01-.29,1.68-.32,2.21.91,1.44,3.34,3.06,6.6,4.46,9.58Z"/>
  </g>
  <g>
    <path class="cls-1" d="M43.45,24.21l-2.11,1.97-18.83,20.25h22.85v47.8h22.19v-48.47c-.34-14.61-14.34-21.56-24.1-21.56Z"/>
    <polygon class="cls-1" points=".25 67.64 0 94.24 22.19 94.24 22.19 46.21 .25 67.64"/>
  </g>
  <path class="cls-1" d="M141.64,65.72h-47.92c.33,4.29,1.71,7.57,4.15,9.84,2.43,2.27,5.43,3.4,8.98,3.4,5.28,0,8.96-2.23,11.02-6.69h22.54c-1.16,4.54-3.24,8.63-6.25,12.26-3.01,3.63-6.79,6.48-11.33,8.54-4.54,2.06-9.62,3.1-15.23,3.1-6.77,0-12.8-1.44-18.08-4.33-5.28-2.89-9.41-7.01-12.38-12.38-2.97-5.36-4.46-11.64-4.46-18.82s1.46-13.45,4.4-18.82c2.93-5.37,7.04-9.49,12.32-12.38,5.28-2.89,11.35-4.33,18.2-4.33s12.63,1.4,17.83,4.21c5.2,2.81,9.27,6.81,12.2,12.01,2.93,5.2,4.4,11.27,4.4,18.2,0,1.98-.12,4.05-.37,6.19ZM120.34,53.96c0-3.63-1.24-6.52-3.71-8.67-2.48-2.15-5.57-3.22-9.29-3.22s-6.54,1.03-8.98,3.1c-2.44,2.06-3.94,5-4.52,8.79h26.5Z"/>
  <path class="cls-1" d="M214.3,65.72h-47.92c.33,4.29,1.71,7.57,4.15,9.84,2.43,2.27,5.43,3.4,8.98,3.4,5.28,0,8.96-2.23,11.02-6.69h22.54c-1.16,4.54-3.24,8.63-6.25,12.26-3.01,3.63-6.79,6.48-11.33,8.54-4.54,2.06-9.62,3.1-15.23,3.1-6.77,0-12.8-1.44-18.08-4.33-5.28-2.89-9.41-7.01-12.38-12.38-2.97-5.36-4.46-11.64-4.46-18.82s1.46-13.45,4.4-18.82c2.93-5.37,7.04-9.49,12.32-12.38,5.28-2.89,11.35-4.33,18.2-4.33s12.63,1.4,17.83,4.21c5.2,2.81,9.27,6.81,12.2,12.01,2.93,5.2,4.4,11.27,4.4,18.2,0,1.98-.12,4.05-.37,6.19ZM193,53.96c0-3.63-1.24-6.52-3.71-8.67-2.48-2.15-5.57-3.22-9.29-3.22s-6.54,1.03-8.98,3.1c-2.44,2.06-3.94,5-4.52,8.79h26.5Z"/>
  <path class="cls-1" d="M222.43,41.23c2.68-5.37,6.33-9.49,10.96-12.38,4.62-2.89,9.78-4.33,15.48-4.33,4.54,0,8.69.95,12.44,2.85,3.76,1.9,6.71,4.46,8.85,7.68V7.18l21.17-7.18v94.6h-21.17v-9.91c-1.98,3.3-4.81,5.94-8.48,7.92-3.67,1.98-7.95,2.97-12.82,2.97-5.7,0-10.86-1.46-15.48-4.4-4.62-2.93-8.28-7.1-10.96-12.51-2.68-5.41-4.02-11.66-4.02-18.76s1.34-13.33,4.02-18.7ZM265.76,47.55c-2.93-3.05-6.5-4.58-10.71-4.58s-7.78,1.51-10.71,4.52c-2.93,3.01-4.4,7.16-4.4,12.44s1.46,9.47,4.4,12.57c2.93,3.1,6.5,4.64,10.71,4.64s7.78-1.53,10.71-4.58c2.93-3.05,4.4-7.22,4.4-12.51s-1.47-9.45-4.4-12.51Z"/>
  <path class="cls-1" d="M364.31,65.72h-47.92c.33,4.29,1.71,7.57,4.15,9.84,2.43,2.27,5.43,3.4,8.98,3.4,5.28,0,8.96-2.23,11.02-6.69h22.54c-1.16,4.54-3.24,8.63-6.25,12.26-3.01,3.63-6.79,6.48-11.33,8.54-4.54,2.06-9.62,3.1-15.23,3.1-6.77,0-12.8-1.44-18.08-4.33-5.28-2.89-9.41-7.01-12.38-12.38-2.97-5.36-4.46-11.64-4.46-18.82s1.46-13.45,4.4-18.82c2.93-5.37,7.04-9.49,12.32-12.38,5.28-2.89,11.35-4.33,18.2-4.33s12.63,1.4,17.83,4.21c5.2,2.81,9.27,6.81,12.2,12.01,2.93,5.2,4.4,11.27,4.4,18.2,0,1.98-.12,4.05-.37,6.19ZM343.01,53.96c0-3.63-1.24-6.52-3.71-8.67-2.48-2.15-5.57-3.22-9.29-3.22s-6.54,1.03-8.98,3.1c-2.44,2.06-3.94,5-4.52,8.79h26.5Z"/>
  <rect class="cls-1" x="380.43" y="92" width="25.85" height="3.12"/>
</svg>